<svg version="1.2" xmlns="http://www.w3.org/2000/svg" viewBox="0 0 64 64" width="64" height="64">
	<title>moon-svg</title>
	<style>
		.s0 { fill: #ff277e } 
	</style>
	<path id="Layer" fill-rule="evenodd" class="s0" d="m40.7 24c0.5 0 0.9 0.3 1 0.6l8.6 24.3h1.7c0.5 0 1 0.5 1 1v2.1c0 0.5-0.5 1-1 1h-9.1c-0.5 0-1-0.5-1-1v-2.1c0-0.5 0.5-1 1-1h1.6l-1.7-5.3h-9.1l-1.9 5.6c-0.3-0.3-0.8-0.5-1.3-0.5l-2.1-6 6.5-18.1c0-0.3 0.5-0.6 0.8-0.6zm-17.5 10.2c0.3 0 0.5 0.2 0.6 0.5l5.5 15.6h1.2c0.3 0 0.7 0.3 0.7 0.6v1.4c0 0.4-0.4 0.7-0.7 0.7h-5.8c-0.4 0-0.7-0.3-0.7-0.7v-1.4c0-0.3 0.3-0.6 0.7-0.6h1l-1.2-3.5h-5.8l-1.2 3.5h1c0.4 0 0.7 0.3 0.7 0.6v1.4c0 0.4-0.3 0.7-0.7 0.7h-5.8c-0.3 0-0.7-0.3-0.7-0.7v-1.4c0-0.3 0.4-0.6 0.7-0.6h1.2l5.5-15.6c0.2-0.3 0.3-0.5 0.7-0.5 0 0 3.1 0 3.1 0zm-1.6 3.3c0 0.3-0.2 0.8-0.3 1.3l-1.7 5.1h4.2l-1.7-5.1c-0.3-0.5-0.5-1-0.5-1.3zm16.6-8.6c0 0.4-0.2 1.2-0.5 2.2l-2.6 8.2h6.5l-2.7-8c-0.4-1-0.5-1.9-0.7-2.4zm-0.4-16.9q0.6 0 0.6 0.5v8.6q0 0.5-0.6 0.5h-8.5q-0.5 0-0.5-0.5v-2.1q0-0.5 0.5-0.5l4.3 0.2c-1.2-2.1-3.4-3.3-6.2-3.3-3.4 0-6.3 2.4-7.2 5.7 0 0.1-0.3 0.3-0.5 0.3h-2c-0.4 0.2-0.5-0.2-0.5-0.5 0.8-4.8 5.1-8.6 10.2-8.6 3.3 0 6.2 1.4 8.1 3.8l-0.2-3.6q0-0.5 0.5-0.5z"/>
</svg>