<svg xmlns="http://www.w3.org/2000/svg" xmlns:xlink="http://www.w3.org/1999/xlink" width="64" height="64" viewBox="0 0 64 64">
  <defs>
    <clipPath id="clip-path">
      <rect id="Rectángulo_85170" data-name="Rectángulo 85170" width="64" height="64" transform="translate(1188 836)" fill="#fff" stroke="#707070" stroke-width="1"/>
    </clipPath>
  </defs>
  <g id="Enmascarar_grupo_74" data-name="Enmascarar grupo 74" transform="translate(-1188 -836)" clip-path="url(#clip-path)">
    <path id="Icon_awesome-building" data-name="Icon awesome-building" d="M27.452,30.222H26.193V1.511A1.511,1.511,0,0,0,24.682,0H3.526A1.511,1.511,0,0,0,2.015,1.511V30.222H.756A.756.756,0,0,0,0,30.978v1.259H28.208V30.978A.756.756,0,0,0,27.452,30.222ZM8.059,4.785a.756.756,0,0,1,.756-.756h2.519a.756.756,0,0,1,.756.756V7.3a.756.756,0,0,1-.756.756H8.815A.756.756,0,0,1,8.059,7.3Zm0,6.044a.756.756,0,0,1,.756-.756h2.519a.756.756,0,0,1,.756.756v2.519a.756.756,0,0,1-.756.756H8.815a.756.756,0,0,1-.756-.756Zm3.274,9.319H8.815a.756.756,0,0,1-.756-.756V16.874a.756.756,0,0,1,.756-.756h2.519a.756.756,0,0,1,.756.756v2.519A.756.756,0,0,1,11.333,20.148Zm4.785,10.074h-4.03V24.934a.756.756,0,0,1,.756-.756h2.519a.756.756,0,0,1,.756.756Zm4.03-10.83a.756.756,0,0,1-.756.756H16.874a.756.756,0,0,1-.756-.756V16.874a.756.756,0,0,1,.756-.756h2.519a.756.756,0,0,1,.756.756Zm0-6.044a.756.756,0,0,1-.756.756H16.874a.756.756,0,0,1-.756-.756V10.83a.756.756,0,0,1,.756-.756h2.519a.756.756,0,0,1,.756.756Zm0-6.044a.756.756,0,0,1-.756.756H16.874a.756.756,0,0,1-.756-.756V4.785a.756.756,0,0,1,.756-.756h2.519a.756.756,0,0,1,.756.756Z" transform="translate(1206 852)" fill="#ff277e"/>
  </g>
</svg>
