<svg xmlns="http://www.w3.org/2000/svg" xmlns:xlink="http://www.w3.org/1999/xlink" width="64" height="64" viewBox="0 0 64 64">
  <defs>
    <clipPath id="clip-path">
      <rect id="Rectángulo_85165" data-name="Rectángulo 85165" width="64" height="64" transform="translate(1021 832)" fill="#fff" stroke="#707070" stroke-width="1"/>
    </clipPath>
  </defs>
  <g id="Enmascarar_grupo_69" data-name="Enmascarar grupo 69" transform="translate(-1021 -832)" clip-path="url(#clip-path)">
    <path id="group_FILL1_wght300_GRAD0_opsz48" d="M5.14,42.337a1.631,1.631,0,0,1-1.159-.452A1.555,1.555,0,0,1,3.5,40.7V38.039A5.49,5.49,0,0,1,4.433,34.9a5.96,5.96,0,0,1,2.573-2.121,47.67,47.67,0,0,1,6.7-2.375,26.708,26.708,0,0,1,6.759-.792,26.623,26.623,0,0,1,6.787.792,48.271,48.271,0,0,1,6.674,2.375A5.96,5.96,0,0,1,36.5,34.9a5.49,5.49,0,0,1,.933,3.139V40.7a1.554,1.554,0,0,1-1.64,1.64Zm35.009,0a1.5,1.5,0,0,0,.735-.594,1.954,1.954,0,0,0,.283-1.1V38.152a8.581,8.581,0,0,0-1.414-5.062,11.324,11.324,0,0,0-3.676-3.309,50.917,50.917,0,0,1,5.712,1.188,21.974,21.974,0,0,1,4.525,1.7,7.4,7.4,0,0,1,2.6,2.319,5.5,5.5,0,0,1,.961,3.167V40.7a1.555,1.555,0,0,1-.481,1.188,1.631,1.631,0,0,1-1.159.452ZM20.467,25.088A7.255,7.255,0,0,1,13,17.565a7.222,7.222,0,0,1,2.121-5.373A7.3,7.3,0,0,1,20.467,10.1a7.369,7.369,0,0,1,5.4,2.093,7.222,7.222,0,0,1,2.121,5.373,7.258,7.258,0,0,1-7.522,7.522Zm17.872-7.522a7.369,7.369,0,0,1-2.093,5.4,7.222,7.222,0,0,1-5.373,2.121,6.2,6.2,0,0,1-.82-.057,5.746,5.746,0,0,1-.82-.17,9.338,9.338,0,0,0,1.81-3.2,12.736,12.736,0,0,0,.622-4.1,11.323,11.323,0,0,0-.65-3.959,13.2,13.2,0,0,0-1.782-3.28,4.145,4.145,0,0,1,.792-.17,6.862,6.862,0,0,1,.848-.057,7.167,7.167,0,0,1,7.465,7.465Z" transform="translate(1026.5 837.9)" fill="#ff277e"/>
  </g>
</svg>
