<svg xmlns="http://www.w3.org/2000/svg" width="29.678" height="25.67" viewBox="0 0 29.678 25.67">
  <path id="Trazado_43398" data-name="Trazado 43398" d="M24.787-26.318a1.705,1.705,0,0,0-.682,1.45,1.705,1.705,0,0,0,.682,1.45l6.993,6.993-22.173.171a1.974,1.974,0,0,0-1.45.6,1.974,1.974,0,0,0-.6,1.45,2.271,2.271,0,0,0,.6,1.535,1.858,1.858,0,0,0,1.45.682l22.173-.171L24.787-5a2.1,2.1,0,0,0-.6,2.047,1.941,1.941,0,0,0,1.535,1.535A1.931,1.931,0,0,0,27.857-2.1l7.675-7.5a6.6,6.6,0,0,0,1.706-4.605,6.6,6.6,0,0,0-1.706-4.605l-7.675-7.5A2.121,2.121,0,0,0,26.322-27,2.121,2.121,0,0,0,24.787-26.318Z" transform="translate(-7.56 27)" fill="#fff"/>
</svg>
