<svg id="close_black_24dp" xmlns="http://www.w3.org/2000/svg" width="20" height="20" viewBox="0 0 20 20">
  <path id="Trazado_4677" data-name="Trazado 4677" d="M0,0H20V20H0Z" fill="none"/>
  <path id="Trazado_4678" data-name="Trazado 4678" d="M16.829,5.675a.882.882,0,0,0-1.249,0L11.248,10,6.916,5.667A.883.883,0,0,0,5.667,6.916L10,11.248,5.667,15.58a.883.883,0,0,0,1.249,1.249L11.248,12.5l4.332,4.332a.883.883,0,0,0,1.249-1.249L12.5,11.248l4.332-4.332A.888.888,0,0,0,16.829,5.675Z" transform="translate(-1.248 -1.248)" fill="#888"/>
</svg>
