<svg version="1.2" xmlns="http://www.w3.org/2000/svg" viewBox="0 0 64 64" width="64" height="64">
	<title>icon_users-svg</title>
	<style>
		.s0 { fill: #6946bb } 
	</style>
	<path id="person_FILL1_wght400_GRAD0_opsz48" class="s0" d="m32 31.5q-1.5 0.1-2.8-0.5-1.4-0.5-2.4-1.5-1-1.1-1.6-2.4-0.5-1.4-0.4-2.9-0.1-1.4 0.4-2.8 0.6-1.3 1.6-2.4 1-1 2.4-1.5 1.3-0.6 2.8-0.5 1.5-0.1 2.8 0.5 1.4 0.5 2.4 1.5 1 1.1 1.6 2.4 0.5 1.4 0.4 2.8 0.1 1.5-0.4 2.9-0.6 1.3-1.6 2.4-1 1-2.4 1.5-1.3 0.6-2.8 0.5zm-15.5 15.5v-4.5q0-0.5 0.1-0.9 0-0.4 0.2-0.8 0.1-0.4 0.2-0.8 0.2-0.3 0.5-0.7 0.2-0.3 0.4-0.6 0.3-0.3 0.6-0.5 0.3-0.3 0.6-0.5 0.4-0.2 0.7-0.4 0.8-0.3 1.5-0.6 0.8-0.3 1.6-0.6 0.8-0.3 1.5-0.5 0.8-0.2 1.6-0.4 0.8-0.2 1.5-0.4 0.7-0.1 1.5-0.2 0.7-0.1 1.5-0.1 0.7-0.1 1.5-0.1 0.8 0 1.5 0.1 0.7 0 1.5 0.1 0.7 0.1 1.5 0.3 0.7 0.1 1.4 0.3 0.8 0.2 1.6 0.4 0.8 0.3 1.6 0.5 0.8 0.3 1.5 0.6 0.8 0.3 1.5 0.6 0.4 0.2 0.7 0.4 0.4 0.2 0.7 0.5 0.3 0.2 0.5 0.5 0.3 0.3 0.5 0.6 0.3 0.4 0.5 0.7 0.1 0.4 0.2 0.8 0.2 0.4 0.2 0.8 0.1 0.4 0.1 0.9v4.5z"/>
</svg>