<svg version="1.2" xmlns="http://www.w3.org/2000/svg" viewBox="0 0 64 64" width="64" height="64">
	<title>Grupo 15560-svg</title>
	<style>
		.s0 { fill: #686868;stroke: #686868 } 
	</style>
	<path id="Trazado_38818" fill-rule="evenodd" class="s0" d="m47.8 45q0 0.1 0.1 0.2 0.1 0.1 0.1 0.3 0 0.1 0 0.2 0 0.1 0 0.3 0 0.1-0.1 0.2 0 0.1-0.1 0.2-0.1 0.1-0.2 0.2-0.1 0.1-0.2 0.2-0.1 0.1-0.2 0.1-0.1 0.1-0.2 0.1-0.2 0-0.3 0-0.1 0-0.2 0-0.2 0-0.3-0.1-0.1 0-0.2-0.1-0.1-0.1-0.2-0.2l-7.7-7.7q-0.6 0.6-1.3 1-0.7 0.5-1.5 0.8-0.7 0.4-1.5 0.6-0.8 0.2-1.6 0.4-0.8 0.1-1.6 0.2-0.8 0-1.7-0.1-0.8 0-1.6-0.2-0.8-0.2-1.6-0.4-0.7-0.3-1.5-0.7-0.7-0.3-1.4-0.8-0.7-0.5-1.3-1-0.6-0.5-1.2-1.2-0.5-0.6-1-1.2-0.5-0.7-0.8-1.4-0.4-0.7-0.7-1.5-0.3-0.8-0.5-1.6-0.2-0.8-0.2-1.6-0.1-0.8-0.1-1.6 0-0.8 0.1-1.6 0.2-0.9 0.4-1.6 0.2-0.8 0.5-1.6 0.3-0.8 0.7-1.5 0.4-0.7 0.9-1.3 0.5-0.7 1.1-1.3 0.6-0.6 1.3-1.1 0.6-0.5 1.3-0.9 0.7-0.4 1.5-0.7 0.8-0.3 1.6-0.5 0.7-0.2 1.6-0.4 0.8-0.1 1.6-0.1 0.8 0 1.6 0.1 0.8 0 1.6 0.2 0.8 0.2 1.6 0.5 0.7 0.3 1.5 0.7 0.7 0.3 1.4 0.8 0.6 0.5 1.2 1 0.7 0.6 1.2 1.2 0.5 0.6 1 1.3 0.5 0.7 0.8 1.4 0.4 0.8 0.7 1.5 0.2 0.8 0.4 1.6 0.2 0.8 0.2 1.6 0.1 0.9 0.1 1.7-0.1 0.8-0.2 1.6-0.2 0.8-0.4 1.6-0.2 0.8-0.6 1.5-0.3 0.8-0.8 1.5-0.4 0.7-1 1.3l7.7 7.7q0.1 0.1 0.2 0.2zm-16.5-5.8q0.6-0.1 1.3-0.3 0.7-0.2 1.3-0.4 0.6-0.3 1.2-0.6 0.6-0.4 1.1-0.8 0.5-0.4 1-0.9 0.5-0.5 0.9-1 0.4-0.5 0.8-1.1 0.3-0.6 0.6-1.2 0.2-0.6 0.4-1.3 0.2-0.7 0.3-1.3 0.1-0.7 0.1-1.4 0-0.7-0.1-1.3-0.1-0.7-0.3-1.4-0.2-0.6-0.4-1.2-0.3-0.7-0.6-1.2-0.4-0.6-0.8-1.2-0.4-0.5-0.9-1-0.5-0.5-1-0.9-0.5-0.4-1.1-0.7-0.6-0.4-1.2-0.6-0.6-0.3-1.3-0.5-0.6-0.1-1.3-0.2-0.7-0.1-1.4-0.1-0.6 0-1.3 0.1-0.7 0.1-1.3 0.2-0.7 0.2-1.3 0.5-0.7 0.2-1.2 0.6-0.6 0.3-1.2 0.7-0.5 0.4-1 0.9-0.4 0.5-0.9 1-0.4 0.6-0.7 1.2-0.4 0.5-0.6 1.2-0.3 0.6-0.5 1.2-0.1 0.7-0.2 1.4-0.1 0.6-0.1 1.3 0 0.7 0.1 1.4 0.1 0.6 0.2 1.3 0.2 0.7 0.5 1.3 0.2 0.6 0.6 1.2 0.3 0.6 0.7 1.1 0.5 0.5 0.9 1 0.5 0.5 1 0.9 0.6 0.4 1.2 0.8 0.5 0.3 1.2 0.6 0.6 0.2 1.2 0.4 0.7 0.2 1.4 0.3 0.6 0.1 1.3 0 0.7 0.1 1.4 0z"/>
</svg>