<svg version="1.2" xmlns="http://www.w3.org/2000/svg" viewBox="0 0 64 64" width="64" height="64">
	<title>moon-svg</title>
	<style>
		.s0 { fill: #ff277e } 
	</style>
	<path id="Layer" fill-rule="evenodd" class="s0" d="m34 13.1l2.1 4.9c0.3 0.9 1.3 1.2 2 0.7l4.6-2.7c1.2-0.7 2.7 0.3 2.4 1.7l-1.4 5.3c-0.2 0.8 0.3 1.6 1.4 1.6l5.4 0.4c1.5 0.2 2 1.9 0.8 2.9l-4 3.4c-0.7 0.5-0.7 1.7 0 2.2l4 3.4c1.2 1 0.6 2.7-0.8 2.9l-5.4 0.3c-0.9 0-1.6 0.8-1.4 1.7l1.4 5.3c0.3 1.3-1.2 2.5-2.4 1.7l-4.6-2.9c-0.7-0.5-1.7-0.2-2 0.6l-2.1 5c-0.5 1.3-2.3 1.3-3 0l-2.1-5c-0.3-0.8-1.3-1.1-2-0.6l-4.6 3c-1.2 0.7-2.7-0.3-2.4-1.7l1.4-5.2c0.2-0.9-0.3-1.7-1.4-1.7l-5.4-0.4c-1.5-0.1-2-1.8-0.8-2.9l4-3.4c0.7-0.5 0.7-1.7 0-2.2l-4-3.4c-1.2-1-0.6-2.8 0.8-3l5.4-0.4c0.9 0 1.6-0.8 1.4-1.6l-1.4-5.3c-0.3-1.4 1.2-2.6 2.4-1.7l4.6 2.9c0.7 0.5 1.7 0.1 2-0.7l2.1-4.9c0.5-1.6 2.5-1.6 3-0.2zm9.4 19.4c0-6-5-10.9-10.9-10.9-5.9 0-10.9 4.9-10.9 10.9 0 5.9 5 10.8 10.9 10.8 5.9 0 10.9-4.9 10.9-10.8zm-10.9 8.3c-4.6 0-8.3-3.7-8.3-8.3 0-4.6 3.7-8.4 8.3-8.4 4.6 0 8.3 3.8 8.3 8.4 0 4.6-3.7 8.3-8.3 8.3z"/>
</svg>