<!-- Generated by IcoMoon.io -->
<svg version="1.1" xmlns="http://www.w3.org/2000/svg" width="1024" height="1024" viewBox="0 0 1024 1024">
<title></title>
<g id="icomoon-ignore">
</g>
<path fill="#6c6f84" d="M81.067 588.8l-51.2-51.2c-21.333-21.333-21.333-55.467 0-76.8l443.733-443.733c21.333-21.333 55.467-21.333 76.8 0l443.733 443.733c21.333 21.333 21.333 55.467 0 76.8l-51.2 51.2c-21.333 21.333-55.467 21.333-76.8 0l-260.267-273.067v657.067c0 29.867-25.6 55.467-55.467 55.467h-72.533c-29.867 0-55.467-25.6-55.467-55.467v-657.067l-260.267 273.067c-25.6 21.333-59.733 21.333-81.067 0z"></path>
</svg>
