<svg xmlns="http://www.w3.org/2000/svg" width="48" height="48" viewBox="0 0 48 48">
    <path d="M26.38 40h3.6V25.6h-3.6zM28 21.16a1.971 1.971 0 0 0 1.41-.54 1.817 1.817 0 0 0 .57-1.38 2.017 2.017 0 0 0-.57-1.44 1.957 1.957 0 0 0-2.82 0 2.017 2.017 0 0 0-.57 1.44 1.817 1.817 0 0 0 .57 1.38 1.971 1.971 0 0 0 1.41.54zM28 52a23.222 23.222 0 0 1-9.3-1.89A24.18 24.18 0 0 1 5.89 37.3a23.974 23.974 0 0 1 0-18.66 23.985 23.985 0 0 1 5.16-7.62 24.6 24.6 0 0 1 7.65-5.13 23.974 23.974 0 0 1 18.66 0 23.962 23.962 0 0 1 12.75 12.75 23.974 23.974 0 0 1 0 18.66 24.6 24.6 0 0 1-5.13 7.65 23.985 23.985 0 0 1-7.62 5.16A23.37 23.37 0 0 1 28 52zm.06-3.6a19.56 19.56 0 0 0 14.4-5.97 19.78 19.78 0 0 0 5.94-14.49 19.61 19.61 0 0 0-5.94-14.4A19.68 19.68 0 0 0 28 7.6a19.709 19.709 0 0 0-14.43 5.94A19.63 19.63 0 0 0 7.6 28a19.659 19.659 0 0 0 5.97 14.43 19.729 19.729 0 0 0 14.49 5.97zM28 28z" transform="translate(-4 -4)" style="fill:#fc277e"/>
</svg>
