<svg xmlns="http://www.w3.org/2000/svg" xmlns:xlink="http://www.w3.org/1999/xlink" width="379.654" height="431.836" viewBox="0 0 379.654 431.836">
    <defs>
        <linearGradient id="85ydbluaaa" x1="-9.657" y1="2.743" x2="-9.694" y2="2.743" gradientUnits="objectBoundingBox">
            <stop offset="0" stop-color="#e1eaf4"/>
            <stop offset=".557" stop-color="#abc6e6"/>
            <stop offset=".649" stop-color="#a8c4e5"/>
            <stop offset="1" stop-color="#a8c4e5"/>
        </linearGradient>
        <linearGradient id="ymxypnnnab" x1="-9.954" y1="2.324" x2="-9.99" y2="2.324" xlink:href="#85ydbluaaa"/>
    </defs>
    <path d="M-426.192-133.082a3.273 3.273 0 0 1-4.609 0 3.164 3.164 0 0 1 0-4.519 3.273 3.273 0 0 1 4.609 0 3.164 3.164 0 0 1 0 4.519" transform="translate(665.671 146.548)" style="fill:#e41874"/>
    <path d="M-274.792 177.718a3.273 3.273 0 0 1-4.609 0 3.164 3.164 0 0 1 0-4.519 3.273 3.273 0 0 1 4.609 0 3.164 3.164 0 0 1 0 4.519" transform="translate(651.101 116.64)" style="fill:#e41874"/>
    <path d="M-672.492 260.918a3.273 3.273 0 0 1-4.609 0 3.164 3.164 0 0 1 0-4.519 3.273 3.273 0 0 1 4.609 0 3.164 3.164 0 0 1 0 4.519" transform="translate(689.373 108.633)" style="fill:#d8d8d8"/>
    <path d="M-508.392-123.582a3.273 3.273 0 0 1-4.609 0 3.164 3.164 0 0 1 0-4.519 3.273 3.273 0 0 1 4.609 0 3.164 3.164 0 0 1 0 4.519" transform="translate(673.581 145.634)" style="fill:#ff5eb0"/>
    <path d="M-271.693 62.7a5.632 5.632 0 0 1-5.6 5.6 5.632 5.632 0 0 1-5.6-5.6 5.632 5.632 0 0 1 5.6-5.6 5.574 5.574 0 0 1 5.6 5.6" transform="translate(651.347 127.721)" style="fill:#e41874"/>
    <path d="M-441.593-66.3a5.632 5.632 0 0 1-5.6 5.6 5.631 5.631 0 0 1-5.6-5.6 5.631 5.631 0 0 1 5.6-5.6 5.517 5.517 0 0 1 5.6 5.6" transform="translate(667.697 140.135)" style="fill:#d3d3d3"/>
    <path d="M-614.628 204.186a8.582 8.582 0 0 1-8.586 8.586 8.525 8.525 0 0 1-8.586-8.586 8.525 8.525 0 0 1 8.586-8.586 8.525 8.525 0 0 1 8.586 8.586" transform="translate(684.922 114.393)" style="fill:#6946bb"/>
    <path d="M-653.393-141.8a5.631 5.631 0 0 1-5.6 5.6 5.631 5.631 0 0 1-5.6-5.6 5.631 5.631 0 0 1 5.6-5.6 5.574 5.574 0 0 1 5.6 5.6" transform="translate(688.078 147.4)" style="fill:#ff5eb0"/>
    <path d="M-282.193-84.9a5.632 5.632 0 0 1-5.6 5.6 5.632 5.632 0 0 1-5.6-5.6 5.632 5.632 0 0 1 5.6-5.6 5.691 5.691 0 0 1 5.6 5.6" transform="translate(652.357 141.924)" style="fill:#e8e8e8"/>
    <g style="opacity:.29">
        <path d="m-532.6 8.837-219.887-126.8c-8.947-5.151-8.5-13.918 1.085-19.341l61.456-35.157c9.58-5.513 24.673-5.784 33.711-.542l219.89 126.71c8.947 5.151 8.5 13.918-1.084 19.341L-498.886 8.2c-9.67 5.513-24.763 5.784-33.71.633" transform="translate(789.476 362.798)" style="fill:#45446c"/>
    </g>
    <path d="M-464.563 175.8s-1.175.723-1.356.813a5.362 5.362 0 0 1-.723.723 2.968 2.968 0 0 1-.723.542c-.271.181-54.045 33.259-54.045 33.259l-.09 8.857 53.232-32.716.814-.542c.09-.09.181-.181.271-.181.181-.181.362-.271.452-.361l.542-.542.181-.181.181-.181c.09-.09.09-.09.09-.181.09-.181.181-.271.271-.452.091-.09.091-.09.091-.181s.09-.09.09-.181c.09-.181.181-.271.181-.362a.28.28 0 0 0 .09-.181c0-.09 0-.09.09-.09a.683.683 0 0 0 .09-.362c0-.09.09-.181.09-.271v-.09a.815.815 0 0 0 .09-.452.332.332 0 0 1 .09-.271V175.8z" transform="translate(674.308 116.298)" style="fill:#d1d1d1"/>
    <path d="m-528.375 212.3-1.084.542c-.09.09-.271.09-.362.181a7.961 7.961 0 0 1-1.356.452c-.09 0-.09 0-.09.09a5.843 5.843 0 0 1-1.175.361c-.09 0-.09 0-.181.09-.362.09-.723.181-.994.271h-.181a6.981 6.981 0 0 1-1.356.181c-.181 0-.361.09-.542.09-.271 0-.542.09-.814.09h-1.807a1.538 1.538 0 0 1-.633-.09c-.181 0-.362-.09-.633-.09-.181 0-.452-.09-.633-.09a1.147 1.147 0 0 0-.542-.09 1.99 1.99 0 0 0-.723-.09 1.146 1.146 0 0 0-.542-.09 2.64 2.64 0 0 0-.813-.181.815.815 0 0 0-.452-.09c-.452-.181-.9-.271-1.446-.452-.271-.09-.452-.181-.723-.271-.09-.09-.271-.09-.361-.181a4.849 4.849 0 0 0-.994-.452l-41.3-23.86c-2.531-1.446-3.8-.723-3.8-2.621l-.09 6.146c0 1.9 1.265 3.8 3.8 5.332l41.3 23.86a3.342 3.342 0 0 0 .994.452c.09.09.271.09.362.181l.542.271c.09 0 .09 0 .09.09a6.776 6.776 0 0 0 1.446.452c.09 0 .09 0 .09.09a.543.543 0 0 0 .362.09 2.638 2.638 0 0 0 .813.181c.09 0 .09.09.181.09a.683.683 0 0 0 .362.09 1.99 1.99 0 0 0 .723.09c.09 0 .181.09.271.09.181 0 .271.09.362.09a1.539 1.539 0 0 0 .633.09.332.332 0 0 1 .271.09h.362c.181 0 .452.09.633.09h1.9c.271 0 .542-.09.814-.09h.361c.09 0 .181 0 .181-.09.452-.09.9-.09 1.356-.181h.09c.362-.09.723-.181.994-.271.09 0 .09 0 .181-.09a5.844 5.844 0 0 0 1.175-.362h.09a7.967 7.967 0 0 1 1.356-.452c.181-.09.271-.09.361-.181a12.07 12.07 0 0 0 1.085-.542c.09-.09.09-.09.181-.09a.088.088 0 0 0 .09-.09l.09-8.857c-.09-.362-.181-.362-.271-.271" transform="translate(681.092 115.316)" style="fill:#c2cad2"/>
    <path d="M-475.115 167.715c4.971 2.892 5.061 7.5.271 10.393l-53.232 32.716c-4.971 3.073-13.376 3.073-18.527.181l-41.3-23.859c-5.151-2.982-5.061-7.772.181-10.755l56.4-30.909c5.061-2.8 13.1-2.711 17.985.181z" transform="translate(681.064 119.413)" style="fill:#f3f3f3"/>
    <g style="opacity:.29">
        <path d="m-758.7-169.218 58.112 33.891 13.737-8.315-57.389-33.258z" transform="translate(874.004 453.081)" style="fill:#45446c"/>
    </g>
    <g style="opacity:.29">
        <path d="M-758.9-166.387v5.965L-741.548-171v-5.6z" transform="translate(932.332 484.113)" style="fill:#45446c"/>
    </g>
    <path d="M-329.945 68.855v-.9a.332.332 0 0 0-.09-.271v-.361c0-.09-.09-.181-.09-.271s-.09-.181-.09-.271c0-.09-.09-.181-.09-.271s-.09-.181-.09-.271v-.09c0-.09-.09-.09-.09-.181a.332.332 0 0 1-.09-.271.315.315 0 0 0-.09-.181v-.186a.332.332 0 0 1-.09-.271.332.332 0 0 1-.09-.271.088.088 0 0 0-.09-.09v-.09a.089.089 0 0 0-.09-.09.332.332 0 0 1-.09-.271.332.332 0 0 1-.09-.271v-.09c-.09-.09-.09-.181-.181-.271s-.09-.181-.181-.271-.09-.09-.09-.181a.089.089 0 0 0-.09-.09 1.248 1.248 0 0 0-.271-.362l-.09-.09a1.587 1.587 0 0 0-.361-.452l-.09-.09-.09-.09c-.09-.09-.09-.09-.09-.181-.09-.09-.181-.181-.181-.271l-.09-.09-.09-.09-.091-.09c-.09-.09-.181-.181-.181-.271l-.181-.181-.09-.09-.09-.09-.271-.271-.271-.271c-.09-.09-.181-.181-.271-.181-.09-.09-.181-.181-.271-.181h-.091l-.09-.09-.181-.181c-.09-.09-.181-.09-.271-.181l-.09-.09c-.09-.09-.09-.09-.181-.09-.09-.09-.181-.09-.271-.181 0 0-1.356-.813-1.446-.813l-7.592 4.157s1.807 1.085 1.9 1.085c.09.09.181.09.271.181s.181.09.271.181.181.181.271.181l.09.09a.705.705 0 0 1 .361.362c.181.09.271.271.362.362l.09.09.361.362.09.09a.705.705 0 0 0 .362.361l.09.09a1.249 1.249 0 0 0 .271.362c.09.09.09.181.181.181.09.09.09.181.181.271s.181.181.181.271c.09.09.09.181.181.181s.09.09.09.181c.09.09.09.181.181.271a.089.089 0 0 0 .09.09c.09.181.181.271.271.452v.9a1.529 1.529 0 0 1 .181.452v.09c.09.181.181.271.181.452v.09c.09.181.09.271.181.452v.09c.091.181.091.271.181.452v.09a.815.815 0 0 1 .09.452v.09a.814.814 0 0 1 .09.452v.09a3.919 3.919 0 0 0 .09.452v1.085a.332.332 0 0 1-.09.271.332.332 0 0 1-.09.271 1.1 1.1 0 0 0-.09.452l-26.3 162.226c-.181.813-3.073 5.694-2.44 5.332l7.23-6.055a8.473 8.473 0 0 0 2.892-5.061l25.748-159.154a17.167 17.167 0 0 0 .271-1.9.332.332 0 0 1 .09-.271v-.633c.723-.09.723-.181.723-.271" transform="translate(659.44 127.624)" style="fill:#90969c"/>
    <path d="M-370.095 49.019c3.434 1.988 5.694 6.507 5.152 10.122L-391.6 223.807c-.542 3.615-3.8 4.971-7.23 2.982L-651.257 81.283c-3.434-1.988-5.694-6.507-5.151-10.122l26.661-164.576c.542-3.615 3.8-4.971 7.23-2.982z" transform="translate(687.298 142.58)" style="fill:#f3f3f3"/>
    <path d="m-357.99 22.387-250.073-144.241-.362-.181a2.577 2.577 0 0 0-.723-.362c-.09-.09-.181-.09-.271-.181s-.181-.09-.271-.181a.332.332 0 0 0-.271-.09.332.332 0 0 0-.271-.09.332.332 0 0 0-.271-.09c-.09 0-.181-.09-.271-.09h-.09c-.09 0-.181-.09-.271-.09h-.361a.332.332 0 0 1-.271-.09h-.994a.332.332 0 0 0-.271.09h-.271c-.181.09-.361.09-.452.181h-.181l-.542.271-7.32 4.248.542-.271a.332.332 0 0 1 .271-.09c.091 0 .181-.09.271-.09s.271-.09.362-.09h.181c.181 0 .361-.09.542 0h.091a1.146 1.146 0 0 1 .542.09h.09a1.146 1.146 0 0 0 .542.09h.091c.181.09.361.09.542.181h.09c.181.09.452.181.633.271.09.09.181.09.271.181a.28.28 0 0 0 .181.09l1.356.813 250.522 144.511a.821.821 0 0 0 .9 0l5.513-3.163c.813-.452.813-1.356.271-1.627" transform="translate(683.96 145.081)" style="fill:#c2cad2"/>
    <path d="M-326.5 47.4v-.9a.332.332 0 0 0-.09-.271v-.362c0-.09-.09-.181-.09-.271s-.09-.181-.09-.271c0-.09-.09-.181-.09-.271s-.09-.181-.09-.271V44.6c0-.09-.091-.09-.091-.181a.332.332 0 0 1-.09-.271.315.315 0 0 0-.091-.181v-.177a.332.332 0 0 1-.09-.271.332.332 0 0 1-.09-.271.089.089 0 0 0-.09-.09v-.09a.089.089 0 0 0-.09-.09.332.332 0 0 1-.09-.271.332.332 0 0 1-.09-.271v-.09c-.09-.09-.09-.181-.181-.271s-.09-.181-.181-.271c.362.361.362.361.362.271a.089.089 0 0 0-.091-.09 1.245 1.245 0 0 0-.271-.361l-.09-.09a1.587 1.587 0 0 0-.362-.452l-.09-.09-.09-.09c-.09-.09-.09-.09-.09-.181-.09-.09-.181-.181-.181-.271l-.09-.09-.09-.09-.09-.09c-.091-.09-.181-.181-.181-.271l-.181-.181-.09-.09-.09-.09-.271-.271-.271-.271c-.091-.09-.181-.181-.271-.181-.09-.09-.181-.181-.271-.181h-.09l-.09-.09-.181-.181c-.09-.09-.181-.09-.271-.181l-.09-.09c-.09-.09-.09-.09-.181-.09-.09-.09-.181-.09-.271-.181 0 0-6.055-3.525-6.146-3.525l-7.5 4.519s6.417 3.344 6.507 3.434.181.09.271.181.181.09.271.181.181.181.271.181l.09.09a.705.705 0 0 1 .362.362c.181.09.271.271.362.361l.09.09.362.362.09.09a.706.706 0 0 0 .362.362l.09.09a1.248 1.248 0 0 0 .271.362c.09.09.09.181.181.181.09.09.09.181.181.271s.181.181.181.271c.09.09.09.181.181.181.09.09.09.09.09.181.09.09.09.181.181.271a.089.089 0 0 0 .09.09c.09.181.181.271.271.452v.09c.09.181.181.271.181.452v.09c.09.181.181.271.181.452v.09c.09.181.09.271.181.452v.09c.09.181.09.271.181.452v.362a.815.815 0 0 1 .09.452v.09a.815.815 0 0 1 .09.452v.09a3.911 3.911 0 0 0 .09.452v1.085a.332.332 0 0 1-.09.271.332.332 0 0 1-.09.271 1.1 1.1 0 0 0-.09.452l-26.3 162.226c-.181.813-3.073 5.694-2.44 5.332l7.23-6.055a8.473 8.473 0 0 0 2.892-5.061L-326.768 50.3a17.167 17.167 0 0 0 .271-1.9.332.332 0 0 1 .09-.271V47.5c-.09 0-.09 0-.09-.09" transform="translate(659.065 129.915)" style="fill:#90969c"/>
    <path d="M-366.985 27.809c3.434 1.988 5.694 6.507 5.151 10.122l-26.661 164.576c-.542 3.615-3.8 4.971-7.23 2.982L-648.057 59.983c-3.434-1.988-5.694-6.507-5.152-10.122l26.661-164.576c.542-3.615 3.8-4.971 7.23-2.982z" transform="translate(686.99 144.63)" style="fill:#272727"/>
    <path d="M-375.282 40.582c3.253 1.808 5.422 5.784 4.88 8.857l-24.131 138.1c-.542 3.073-3.615 4.067-6.869 2.169L-640.629 54.319c-3.254-1.808-5.422-5.784-4.88-8.857l24.131-138.1c.542-3.073 3.615-4.067 6.869-2.169z" transform="translate(686.249 142.432)" style="fill:#fff"/>
    <path d="M-473.839-25.5c0 1.627-1.085 2.259-2.531 1.446a5.615 5.615 0 0 1-2.53-4.338c0-1.627 1.085-2.259 2.53-1.446a5.764 5.764 0 0 1 2.531 4.338" transform="translate(670.208 136.121)" style="fill:#fff"/>
    <path d="M-415.779 170.592-611.806 57.53c-3.254-1.808-5.332-6.869-4.609-11.3l17.081-104.385c.723-4.338 3.886-6.326 7.14-4.519L-396.167 50.39c3.253 1.808 5.332 6.869 4.609 11.3l-17.081 104.385c-.723 4.428-3.886 6.417-7.14 4.519" transform="translate(683.455 139.311)" style="fill:#a7d1e8"/>
    <path d="m-391.824 73.372 2.079-12.743c.633-3.705-1.988-8.586-5.694-10.755L-589.568-62.013c-3.705-2.169-7.321-.9-7.953 2.892l-2.079 12.744z" transform="translate(681.823 139.284)" style="fill:#45446c"/>
    <path d="M-581.461-44.872c-.271 1.717-1.9 2.259-3.615 1.265a5.026 5.026 0 0 1-2.531-4.88c.271-1.717 1.9-2.259 3.615-1.265a5.026 5.026 0 0 1 2.53 4.88" transform="translate(680.675 138.051)" style="fill:#ffd22d"/>
    <path d="M-567.661-36.972c-.271 1.717-1.9 2.259-3.615 1.265a5.026 5.026 0 0 1-2.53-4.88c.271-1.717 1.9-2.259 3.615-1.265a5.367 5.367 0 0 1 2.531 4.88" transform="translate(679.347 137.29)" style="fill:#d84177"/>
    <path d="M-553.861-29.072c-.271 1.717-1.9 2.259-3.615 1.265a5.026 5.026 0 0 1-2.531-4.88c.362-1.717 1.9-2.259 3.615-1.265a5.46 5.46 0 0 1 2.53 4.88" transform="translate(678.02 136.53)" style="fill:#6271f0"/>
    <g style="opacity:.45">
        <path d="m-702.143-152.82-40.308-23.227c-2.079-1.175-4.067.09-4.519 2.892l-11.839 72.844c-.452 2.8.813 5.965 2.892 7.14l40.308 23.227c2.079 1.175 4.067-.09 4.519-2.892l11.839-72.753c.452-2.8-.813-6.055-2.892-7.23" transform="translate(775.87 216.688)" style="fill:#45446c"/>
    </g>
    <path d="m-639.21 7.756-40.308-23.227c-2.079-1.175-3.344-4.338-2.892-7.14l11.839-72.844c.452-2.8 2.44-4.067 4.519-2.892l40.308 23.227c2.079 1.175 3.344 4.338 2.892 7.14l-11.839 72.844c-.452 2.8-2.531 4.067-4.519 2.892" transform="translate(689.801 142.721)" style="fill:#6946bb"/>
    <path d="M-631.669-57.226-663.03-75.3a5.149 5.149 0 0 1-2.079-5.151c.362-1.988 1.808-2.892 3.344-2.079l31.365 18.074a5.148 5.148 0 0 1 2.079 5.151c-.361 1.988-1.9 2.982-3.344 2.079" transform="translate(688.135 141.187)" style="fill:#fff"/>
    <path d="m-631.2-41.6-35.7-20.606.9-5.694 35.7 20.516z" transform="translate(688.3 139.75)" style="fill:#d1d1d1"/>
    <path d="m-633.6-27.01-35.7-20.606.994-5.784 35.7 20.606z" transform="translate(688.531 138.354)" style="fill:#a7d1e8"/>
    <path d="M-635.992-12.41-671.6-33.016l.9-5.784 35.7 20.606z" transform="translate(688.752 136.949)" style="fill:#d1d1d1"/>
    <path d="m-656.547-9.274-17.353-9.942.9-5.784 17.352 9.941z" transform="translate(688.973 135.621)" style="fill:#a7d1e8"/>
    <path d="m-443.994 148.729-139.271-80.255a9.326 9.326 0 0 1-4.338-8.044l6.055-77.272c.271-2.892 2.53-4.067 5.151-2.531l139.271 80.345a9.326 9.326 0 0 1 4.338 8.044l-5.965 77.272c-.271 2.892-2.621 4.067-5.242 2.44" transform="translate(680.671 135.145)" style="fill:#fff"/>
    <g>
        <path d="m-739.482-128.163-11.116-5.694 12.653-17.623.181.09zm3.525-40.037-21.243 29.644-.9 12.382v.09l17.895 9.128-1.175 15.456 8.134 4.157 1.175-15.454 5.6 2.892.814-11.207-5.6-2.892 2.982-40.308-7.682-3.886" transform="translate(872.975 316.353)" style="fill:#cc0a63" data-name="Grupo 17521"/>
        <path d="M-704.055-93.424a4.866 4.866 0 0 1-.9-.271 4.41 4.41 0 0 0-.633-.271c-6.869-3.525-5.694-19.883-5.061-27.384.452-6.417 1.536-20.877 7.14-20.244.271.09.542.09.9.181l.542.271c6.959 3.615 5.784 19.973 5.242 26.842-.452 6.959-1.537 21.419-7.23 20.877m-1.265-60.281c-6.688-.723-12.2 6.236-13.918 27.926-1.988 26.661 4.428 38.681 12.833 43.019a13.894 13.894 0 0 0 1.717.723 8.468 8.468 0 0 0 2.531.542c6.688.723 12.381-6.326 14.008-28.469 1.989-26.119-4.609-38.139-13.014-42.477a9.8 9.8 0 0 0-1.717-.723 11.83 11.83 0 0 0-2.44-.542" transform="translate(869.27 314.963)" style="fill:#cc0a63" data-name="Grupo 17522"/>
        <path d="m-665.092-90.263-11.116-5.694 12.653-17.623.181.09zm3.434-40.037-21.242 29.644-.9 12.382 17.895 9.128-1.175 15.454 8.134 4.157 1.175-15.364 5.6 2.892.813-11.207-5.6-2.892 2.983-40.218-7.682-3.977" transform="translate(865.825 312.706)" style="fill:#cc0a63" data-name="Grupo 17523"/>
    </g>
    <g>
        <path d="m-402.142 127.987-21.058-12.2 2.531-8.586 19.973 12.11z" transform="translate(664.849 122.9)" style="fill:#a7d1e8"/>
        <path d="m-404.452 144.3-21.148-12.11 2.531-8.586 19.973 12.02z" transform="translate(665.08 121.322)" style="fill:#a7d1e8"/>
        <g style="opacity:.45">
            <path d="M-726.731-174.788a3.678 3.678 0 0 0-5.061-1.265 42.9 42.9 0 0 0-10.3 6.688c-2.892 2.44-5.965 5.152-7.953 8.405-2.621 4.338-3.163 9.038-2.982 14.008l1.085 20.877a.544.544 0 0 0 .09.362c-.994 1.627-2.169 3.344-2.8 4.338a54.209 54.209 0 0 0-4.067 4.88c-.9 1.175 1.175 1.988 1.175 1.988a16.152 16.152 0 0 0 8.5-1.085c1.807-1.265.633-2.982 2.44-5.694.271-.452 1.084-.9 1.175-.452l-.181 2.892.994-.181s.542-4.157 1.175-6.959a3.182 3.182 0 0 0-.452-2.711 4.018 4.018 0 0 0-.723-.994c-.09-.09-.09-.181-.181-.271-.271-5.242-.542-10.393-.813-15.635-.181-3.525-.452-6.869 1.175-10.122 1.536-3.073 4.248-5.513 6.869-7.682a39.755 39.755 0 0 1 9.4-6.055 4.038 4.038 0 0 0 1.446-5.332" transform="translate(1047.983 327.834)" style="fill:#45446c"/>
        </g>
        <g style="opacity:.45">
            <path d="M-717.885-176.805c-3.705.723-7.682 1.536-11.026 3.434-4.428 2.44-7.321 6.236-9.49 10.664-3.073 6.236-6.236 12.472-9.309 18.708-.09.09-.09.181-.181.362-1.717.9-3.525 1.9-4.609 2.44-2.44.813-4.79 1.627-5.965 2.169-1.356.633 0 2.259 0 2.259a15.836 15.836 0 0 0 7.953 3.163c2.169-.181 1.988-2.259 4.971-3.705.452-.271 1.356-.271 1.265.181l-1.537 2.44.994.362s2.531-3.344 4.428-5.513a2.865 2.865 0 0 0 .9-2.531 5.284 5.284 0 0 0-.181-1.175.543.543 0 0 0 .09-.362c2.349-4.7 4.7-9.4 6.959-14.1 1.536-3.163 2.982-6.236 6.055-8.224 2.892-1.988 6.507-2.711 9.851-3.344 3.8-.633 2.982-7.953-1.175-7.23" transform="translate(1028.073 331.261)" style="fill:#45446c"/>
        </g>
        <path d="M-355.646-18.212a37.327 37.327 0 0 1-2.169 8.857c-.09.181-.09.271-.181.362-.181.452.181-.362.091-.181-.091.271-.271.542-.362.813-.271.452-.452.994-.723 1.446-.542.994-1.085 1.9-1.717 2.892Q-362.876-.5-364.774 3.3c-.452.994-.994 1.988-1.536 2.982l-.813 1.356a1.888 1.888 0 0 0-.361.542c-.09.09-.181.181-.181.271-.181.271.271-.362.271-.362-.09.09-.09.181-.181.181a16.157 16.157 0 0 1-1.175 1.265c-.271.181-.452.452-.723.633-.09.09-.542.452-.181.181s-.09.09-.181.181a38.553 38.553 0 0 1-4.609 2.711 2.792 2.792 0 0 0-.994 3.8 2.792 2.792 0 0 0 3.8.994 23.869 23.869 0 0 0 7.321-4.971 23.406 23.406 0 0 0 3.8-5.874c1.265-2.531 2.531-4.971 4.067-7.411a43.357 43.357 0 0 0 3.344-6.055 42.17 42.17 0 0 0 2.8-10.393 3 3 0 0 0-.271-2.169 3.218 3.218 0 0 0-1.627-1.265 2.758 2.758 0 0 0-3.434 1.9" transform="translate(660.288 135.16)" style="fill:#ffaa82"/>
        <path d="M-350.864 18.554a37.891 37.891 0 0 0-7.772 4.7 57.972 57.972 0 0 0-7.049 6.236 21.794 21.794 0 0 0-6.415 16.177c.271 5.423.542 10.936.9 16.358.09 2.169.271 4.338.361 6.417a3.783 3.783 0 0 0 3.705 3.705 3.783 3.783 0 0 0 3.705-3.705l-.452-8.5c-.271-4.157-.452-8.405-.723-12.562a24.544 24.544 0 0 1 .09-5.151c-.09.362-.09.633-.181.994a22.363 22.363 0 0 1 .542-2.621c.181-.452.271-.9.452-1.265a.446.446 0 0 0 .09-.271c.09-.09-.361.813-.181.362.09-.271.181-.452.271-.723a19.9 19.9 0 0 1 1.356-2.35 1.973 1.973 0 0 1 .362-.452c-.633.9-.181.271 0 0a4.736 4.736 0 0 1 .9-.994c1.265-1.265 2.531-2.531 3.886-3.705.723-.723 1.536-1.265 2.259-1.9.09-.09.181-.181.271-.181 0 0-.633.452-.271.271a1.889 1.889 0 0 1 .542-.362 15.33 15.33 0 0 0 1.265-.9 35.1 35.1 0 0 1 5.694-3.163 3.674 3.674 0 0 0 1.717-2.169 3.614 3.614 0 0 0-.361-2.892 3.383 3.383 0 0 0-2.259-1.717 4.931 4.931 0 0 0-2.711.362" transform="translate(659.934 131.472)" style="fill:#ef9a78"/>
        <path d="M-355.055-18.806c-.9 2.711-1.9 5.332-2.982 7.953a3.768 3.768 0 0 0 .361-.9c-1.717 3.977-3.615 7.772-5.242 11.749a3.782 3.782 0 0 0 .362 2.982 3.916 3.916 0 0 0 2.35 1.808 3.782 3.782 0 0 0 2.982-.362 4.286 4.286 0 0 0 1.807-2.35c.271-.813.633-1.536.9-2.35a3.776 3.776 0 0 0-.362.9c.994-2.259 2.079-4.428 3.073-6.688a110.755 110.755 0 0 0 4.248-10.755 3.935 3.935 0 0 0-2.711-4.79 4.151 4.151 0 0 0-4.79 2.8" transform="translate(659.064 135.302)" style="fill:#cecece"/>
        <path d="M-389.154 58.627c.813-.9 1.536-1.9 2.259-2.8 1.356-1.717 2.711-3.525 4.067-5.242.542-.723 1.085-1.446 1.717-2.259.181-.181.271-.362.361-.452s.091-.181.181-.181c.361-.452-.633.813-.271.362.181-.271.452-.542.633-.813a43.316 43.316 0 0 1 3.886-4.248c.723-.723 1.356-1.356 2.079-1.988a8.147 8.147 0 0 1 .9-.813c.181-.181.361-.271.542-.452.542-.452-.723.452-.09.09a9.861 9.861 0 0 1 .994-.542c.181-.09.271-.181.452-.271s.271-.09.362-.181a1.526 1.526 0 0 1-.452.181 6.974 6.974 0 0 1 2.35-.633c-.362.09-.633.09-.994.181.181-.09.452 0 .633 0-.361-.09-.633-.09-.994-.181a12.489 12.489 0 0 1 2.44.723c1.175.362 2.35.723 3.525.994a22.761 22.761 0 0 0 11.026-.09 23.464 23.464 0 0 0 6.778-3.254 3.672 3.672 0 0 0 1.717-2.259 3.614 3.614 0 0 0-.361-2.892c-.994-1.536-3.344-2.531-5.061-1.265-.723.452-1.356.9-2.079 1.265a4.224 4.224 0 0 1-.9.452l-.542.271c.181-.181.723-.271.181-.09a18.869 18.869 0 0 1-3.886.994c.362-.09.633-.09.994-.181a19.052 19.052 0 0 1-5.061-.09c.361.09.723.09.994.181-2.44-.362-4.79-1.265-7.23-1.808-4.157-.994-8.134 1.536-11.116 4.157a56.112 56.112 0 0 0-6.417 6.688c-1.717 2.169-3.344 4.338-4.971 6.507-.452.542-.9 1.175-1.356 1.717-.09.181-.271.271-.361.452-.271.271.452-.542.361-.452s-.181.181-.181.271l-.542.813a17.334 17.334 0 0 1-1.627 1.988 3.709 3.709 0 0 0 0 5.242 3.575 3.575 0 0 0 5.061-.09" transform="translate(662.164 130.352)" style="fill:#ffaa82"/>
        <path d="m-393.137 66.767-.271-.452c-.181-.271 0-.542.271-.723s.542 0 .723.271l.271.452c.181.271 0 .542-.271.723a.569.569 0 0 1-.723-.271" transform="translate(661.989 126.911)" style="fill:#514677"/>
        <path d="m-393.313 65.465 1.446-1.988a.572.572 0 0 1 .813-.09.572.572 0 0 1 .09.813l-1.446 1.988a.572.572 0 0 1-.813.09.572.572 0 0 1-.09-.813" transform="translate(661.985 127.128)" style="fill:#423a66"/>
        <path d="M-387.317 58.625c.181-1.265-.271-3.254-1.085-3.525l-3.977 1.536-.362-.181c-1.988.542-11.026 2.169-13.737 3.073-1.446.452-.271 2.259-.271 2.259a16.446 16.446 0 0 0 7.5 4.157c2.169.09 2.259-1.988 5.423-3.073.542-.181 1.446-.09 1.265.271l-1.807 2.259.9.452s2.982-2.982 5.061-4.88a3.5 3.5 0 0 0 1.085-2.35" transform="translate(663.309 127.914)" style="fill:#fff"/>
        <path d="m-388.16 54.3-2.44.181s-8.224 3.163-9.851 3.8c-1.808.813 1.356 6.869 10.845 1.265 5.694-2.44 1.446-5.242 1.446-5.242" transform="translate(662.707 127.991)" style="fill:#ffaa82"/>
        <path d="M-356.429 13.2c-12.652 8.044-20.425 15.364-19.971 18.8 0 0 6.326-3.525 11.3-.633 4.88 2.892 3.8 5.332 2.53 6.6a.655.655 0 0 0 .452 1.085c5.875.181 26.39.09 26.752-11.026.271-9.4-.994-10.574-.994-10.574s-13.2 4.7-20.064-4.248" transform="translate(660.348 131.946)" style="fill:#cc0a63"/>
        <path d="M-328.793-17.939a9.438 9.438 0 0 0-2.531-2.079 48.344 48.344 0 0 0-3.073-1.536 16.674 16.674 0 0 0-6.6-1.446c-1.175-.09-1.175 1.808 0 1.808a17.294 17.294 0 0 1 5.694 1.175c.9.362 1.808.813 2.711 1.265a7.792 7.792 0 0 1 2.169 1.536 1.118 1.118 0 0 0 1.265.362.645.645 0 0 0 .361-1.085" transform="translate(657.023 135.429)" style="fill:#bc4073"/>
        <path d="M-350.692-16.1s-4.88 6.688-4.609 10.936c.181 2.711 1.988 5.784 2.169 6.688 1.9 7.14.452 9.128.633 11.207 0 0 1.175 6.778 17.985 1.446l7.411-19.7z" transform="translate(658.316 134.765)" style="fill:#f4f4f4"/>
        <path d="M-328.551-1.642c.181-.271 1.717-2.8 1.808-3.073.723-3.344 2.711-5.874-.9-10.3-.723-.9-8.947-5.965-15.364-7.5a6.809 6.809 0 0 0-7.682 3.705 36.277 36.277 0 0 0-1.717 4.971c-.723 6.688 2.8-1.9 2.982 1.717 0-.09-.09-.181-.09-.271 0 0 .452 6.236.813 11.026.181 2.982.362 5.151.362 5.513v.09l10.755 9.49 6.507-10.3z" transform="translate(658.046 135.4)" style="fill:#fff"/>
        <path d="M-341.93-22.5s-5.965 5.513-1.356 9.851 13.466-4.338 13.466-4.338c-4.157-2.982-8.224-5.061-12.11-5.513" transform="translate(657.327 135.381)" style="fill:#ffaa82"/>
        <path d="M-326.916-2.7c-.723.271-2.711 2.982-4.338 4.428-3.073 2.711-7.5 4.248-11.478 3.073A62.476 62.476 0 0 1-354.3-.26s2.079 8.315.9 12.924c-.542 2.169-.271 1.808-.271 1.808 0 2.079 3.525 1.717 3.525 1.717 7.321 2.711 15.726-.9 15.726-.9l5.6-13.828z" transform="translate(658.219 133.476)" style="fill:#f4f4f4"/>
        <path d="M-355.41 14.01a1.262 1.262 0 0 0 .271 1.356 15.382 15.382 0 0 0 10.3 4.7 31.749 31.749 0 0 0 9.67-.542 1.406 1.406 0 0 0 .994-1.536l-.09-.362a1.389 1.389 0 0 0-1.535-1.086c-2.8.633-9.49 1.717-13.647-.362a15.807 15.807 0 0 1-3.8-2.531 1.242 1.242 0 0 0-2.169.362" transform="translate(658.334 131.949)" style="fill:#46466b"/>
        <path d="m-347.636 20.207-2.711-1.085a2.253 2.253 0 0 1-1.356-2.35 1.447 1.447 0 0 1 1.988-1.085l2.715 1.085a2.253 2.253 0 0 1 1.356 2.35 1.447 1.447 0 0 1-1.988 1.085" transform="translate(657.971 131.717)" style="fill:#fff"/>
        <path d="m-348.052 19.319-1.536-.633a1.28 1.28 0 0 1-.813-1.356.7.7 0 0 1 1.085-.542l1.536.633a1.28 1.28 0 0 1 .814 1.356.715.715 0 0 1-1.085.542" transform="translate(657.844 131.611)" style="fill:#46466b"/>
        <path d="M-343.885-21.778a.332.332 0 0 0-.09.271c-.09.271-.181.542-.271.9-.181.723-.452 1.536-.633 2.259l-.542 2.169a5.561 5.561 0 0 0-.181 1.717 4.412 4.412 0 0 0 1.988 2.259 8.9 8.9 0 0 0 3.073 1.085 6.17 6.17 0 0 0 3.344-.452c.813-.362 1.627-.813 2.35-1.175.813-.362 1.536-.813 2.259-1.175 1.085-.542 1.717-1.536 2.711-2.259a.862.862 0 0 0 .271-1.085.757.757 0 0 0-1.084-.271c-.813.633-1.536 1.536-2.35 2.079-.452.271-.994.542-1.536.813a15.092 15.092 0 0 1-4.609 2.079 6.675 6.675 0 0 1-2.982-.452 2.752 2.752 0 0 1-1.175-.813l-.452-.452c-.09-.09-.271-.452-.271-.362.09.09.09-.362 0-.362.09-.271.09-.542.181-.9.181-.723.361-1.356.542-2.079a13.085 13.085 0 0 0 .9-3.705c.181-1.085-1.446-1.085-1.446-.09" transform="translate(657.384 135.382)" style="fill:#cc0a63"/>
        <path d="m-363.581 81.862-.452-.271a.605.605 0 0 1-.271-.723.569.569 0 0 1 .723-.271l.452.271a.605.605 0 0 1 .271.723.479.479 0 0 1-.723.271" transform="translate(659.185 125.463)" style="fill:#514677"/>
        <path d="M-364.3 80.882v-2.44a.583.583 0 0 1 .542-.542.583.583 0 0 1 .542.542v2.44a.583.583 0 0 1-.542.542.521.521 0 0 1-.542-.542" transform="translate(659.181 125.719)" style="fill:#423a66"/>
        <path d="M-363.4 70.765c-.542-1.175-2.169-2.44-2.982-2.169l-2.259 3.615-.361.09c-1.175 1.536-7.5 8.224-9.219 10.664-.9 1.175 1.175 1.988 1.175 1.988a16.151 16.151 0 0 0 8.5-1.085c1.808-1.265.633-2.982 2.44-5.694.271-.452 1.084-.9 1.175-.452l-.181 2.892.994-.181s.542-4.157 1.175-6.959a3.182 3.182 0 0 0-.452-2.711" transform="translate(660.543 126.618)" style="fill:#fff"/>
        <path d="m-366.61 68.2-1.9 1.536s-4.79 7.411-5.6 8.857c-.994 1.717 5.242 4.7 9.49-5.423 3.073-5.242-1.988-4.971-1.988-4.971" transform="translate(660.135 126.654)" style="fill:#ef9a78"/>
        <path d="M-341.473-3.719a9.168 9.168 0 0 1-2.527.813c-.362.09-.723-.09.181 0-.181 0-.271.09-.452.09h-.452c-.09 0-.452-.09.181.09.542.09.181.09.09 0s-.181-.09-.362-.09c-.271-.09.723.362.362.181-.09-.09-.09-.09-.181-.09-.091-.09-.181-.181-.271-.181.723.362.452.362.181.181L-345-3c-.271-.271.452.723.181.181-.181-.271-.271-.452-.452-.723-.091-.181-.181-.271-.181-.452a.28.28 0 0 1-.09-.181l.181.362c-.09-.362-.271-.633-.361-.994-.271-.723-.542-1.536-.813-2.259a47.956 47.956 0 0 0-2.711-5.784 30.218 30.218 0 0 0-5.965-7.14 2.837 2.837 0 0 0-3.977 0 2.727 2.727 0 0 0 0 3.886 33.682 33.682 0 0 1 3.073 3.163c.09.181.271.271.362.452l-.09-.09a6.349 6.349 0 0 1 .542.813 8.95 8.95 0 0 1 .994 1.536 29.256 29.256 0 0 1 1.536 2.892c.09.271.181.452.271.723.09.181.181.452-.09-.271a.332.332 0 0 1 .09.271l.542 1.356c1.085 2.982 2.079 6.778 5.513 7.682 2.079.633 4.248-.09 6.236-.813a2.555 2.555 0 0 0 1.628-1.262 2.942 2.942 0 0 0 .271-2.169 2.532 2.532 0 0 0-3.163-1.9" transform="translate(658.767 135.218)" style="fill:#ffaa82"/>
        <path d="M-354.474-35.161c-.9 2.44-1.085 5.332.452 7.411a10.836 10.836 0 0 0 .994 1.085 11.44 11.44 0 0 1 2.169 2.982.9.9 0 0 0 .362.452 1.14 1.14 0 0 0 1.356-.271 9.185 9.185 0 0 0 .813-1.175c.813-1.175 17.533 8.5 18.346 7.321 1.085-1.627-2.982-20.154-3.434-22.052-.542-2.44-12.743.813-14.732-.723a10.24 10.24 0 0 1-1.175-.9c-.452-.452-.994-1.627-1.808-1.175-.723.271-.9 1.536-1.084 2.079a30.953 30.953 0 0 0-2.259 4.971" transform="translate(658.302 137.287)" style="fill:#492817"/>
        <path d="m-341.008-19.6-2.892-11.3 7.049 2.259 2.35 9.218c.542 1.536-4.338 5.6-6.507-.181" transform="translate(657.218 136.189)" style="fill:#ffaa82"/>
        <path d="m-341.4-20.973 3.163-1.627a7.609 7.609 0 0 1-2.711 3.163z" transform="translate(656.977 135.391)" style="fill:#ea8a6c"/>
        <path d="m-341.6-23.4-3.073.09a5.753 5.753 0 0 1-5.965-5.513L-351-40.845a5.81 5.81 0 0 1 5.513-5.965l3.073-.09a5.753 5.753 0 0 1 5.965 5.513l.362 12.02A5.694 5.694 0 0 1-341.6-23.4" transform="translate(657.902 137.73)" style="fill:#ffaa82"/>
        <path d="M-340.534-37.752c-2.531-3.163-7.321.542-9.851-.362-2.8-1.085-1.808-3.886.09-6.236a10.82 10.82 0 0 1 4.88-3.254c7.14-2.711 14.37.362 14.641 8.405 0 0 .633 11.026-5.874 12.743l-.452-1.627s3.705-4.067-.271-6.507c-.9-.542-.994-.542-.9-1.9.181-1.356-1.356-.181-2.259-1.265" transform="translate(658.009 137.89)" style="fill:#492817"/>
        <path d="m-348.35-27.8 3.8 1.627a.484.484 0 0 1 .271.362c-.09.542-.542 1.9-2.531 1.085a3.378 3.378 0 0 1-1.988-2.8c-.09-.181.181-.362.452-.271" transform="translate(657.692 135.894)" style="fill:#fff"/>
        <path d="M-348.4-32.7c0 .452-.181.9-.452.9s-.452-.362-.452-.9c0-.452.181-.9.452-.9s.452.452.452.9" transform="translate(657.737 136.449)" style="fill:#492817"/>
        <path d="M-343.252-33.106a4.039 4.039 0 0 1 2.44 1.085c.361.452 1.084-.271.633-.633a5.143 5.143 0 0 0-3.163-1.446c-.542 0-.542.994.09.994" transform="translate(657.202 136.497)" style="fill:#492817"/>
        <path d="M-350.145-35.7a3.632 3.632 0 0 1 2.531.9c.452.362 1.085-.271.633-.633a5.31 5.31 0 0 0-3.254-1.175c-.452 0-.452.9.09.9" transform="translate(657.859 136.738)" style="fill:#492817"/>
        <path d="M-339.815-37.495s7.14 9.4 6.507 15.454c-.542 5.061-6.055 8.315-6.959 15.906a1.571 1.571 0 0 0 2.8 1.175 23.677 23.677 0 0 1 4.79-4.7c4.79-3.254 5.6-6.778 5.242-9.309-.452-2.531-2.44-21.148-2.44-21.148L-340.9-41.2z" transform="translate(656.929 137.181)" style="fill:#492817"/>
        <path d="M-333.383-28.2a1.479 1.479 0 0 1-2.531-.633 3.649 3.649 0 0 1 1.085-3.615 1.487 1.487 0 0 1 2.531.633 3.536 3.536 0 0 1-1.085 3.615" transform="translate(656.461 136.383)" style="fill:#ffaa82"/>
        <path d="M-352.222-31.155s.09-3.705 8.947-8.586.362-.271.362-.271L-351.77-42c.181.09-3.344 4.067-.452 10.845" transform="translate(658.129 137.258)" style="fill:#492817"/>
        <path d="m-350.243-34.014-8.857 5.965 2.079 3.073 8.857-5.965c.542-.362.542-1.356-.09-2.259a1.628 1.628 0 0 0-1.988-.813" transform="translate(658.68 136.502)" style="fill:#fff"/>
        <path d="m-352.838-33.621-12.562 8.405 2.982 4.428 12.562-8.405c.813-.542.723-1.9-.09-3.163-.813-1.175-2.169-1.808-2.892-1.265" transform="translate(659.287 136.47)" style="fill:#fff"/>
        <path d="m-362.249-29.127-15.635 9.851a.089.089 0 0 0-.09.09c-1.084.723-.9 2.982.452 4.971s3.344 3.073 4.428 2.35l.09-.09 15-10.755c1.084-.723.994-2.8-.181-4.519s-2.982-2.621-4.067-1.9" transform="translate(660.564 136.043)" style="fill:#aa0059"/>
        <path d="m-372.618-22.834-7.682 4.248 6.417 8.947 6.6-5.332c1.356-.9 1.265-3.434-.181-5.6-1.536-2.079-3.8-3.163-5.151-2.259" transform="translate(660.721 135.444)" style="fill:#fff"/>
        <path d="M-374.324-15.61c1.717 2.531 1.627 5.6-.181 6.778s-4.609.09-6.326-2.44-1.627-5.6.181-6.778 4.609-.09 6.326 2.44" transform="translate(660.891 134.998)" style="fill:#c2cad2"/>
        <path d="M-374.928-14.938c1.356 1.9 1.265 4.248-.181 5.151-1.356.9-3.525.09-4.79-1.808s-1.265-4.248.181-5.151c1.265-.994 3.434-.181 4.79 1.808" transform="translate(660.771 134.868)" style="fill:#45446c"/>
        <path d="M-343.648-30.252a1.255 1.255 0 0 1 .994.181 6.35 6.35 0 0 1 .813.542c.09.09.271.09.271 0a.169.169 0 0 0 0-.271 4.015 4.015 0 0 0-.994-.723 2.272 2.272 0 0 0-1.356-.181c-.09 0-.181.181-.181.271.181.09.271.181.452.181" transform="translate(657.237 136.174)" style="fill:#492817"/>
        <path d="M-364.171-23.929a3.163 3.163 0 0 1 4.428-.542l4.79 3.705a3.163 3.163 0 0 1 .542 4.428 3.163 3.163 0 0 1-4.428.542l-4.79-3.705a3.163 3.163 0 0 1-.542-4.428" transform="translate(659.232 135.635)" style="fill:#ffaa82"/>
        <path d="M-372.322 21.759h-3.525a3.24 3.24 0 0 1-3.254-3.254v-.452a3.24 3.24 0 0 1 3.254-3.254h3.525a3.24 3.24 0 0 1 3.254 3.254v.452a3.24 3.24 0 0 1-3.254 3.254" transform="translate(660.605 131.792)" style="fill:#ffaa82"/>
        <path d="M-378.227-15.17a1.044 1.044 0 0 0-1.9-.09c-.361.723-.452 1.808.9 3.615 2.531 3.254 2.35-.542.994-3.525" transform="translate(660.726 134.739)" style="fill:#7b7bc6"/>
        <path d="M-377.728-15.429a.7.7 0 0 1 0 .994.736.736 0 0 1-.994-.181.7.7 0 0 1 0-.994.847.847 0 0 1 .994.181" transform="translate(660.588 134.727)" style="fill:#fff"/>
        <path d="M-453.737 73.774c-18.708-11.478-37.054-2.259-40.941 20.606s8.134 50.7 26.842 62.179 37.055 2.259 40.941-20.606-8.134-50.7-26.842-62.179m21.781 59.106c-3.344 19.431-18.889 27.294-34.7 17.533s-26.119-33.439-22.775-52.87 18.889-27.294 34.7-17.533 26.028 33.349 22.775 52.87" transform="translate(671.798 126.592)" style="fill:#5b5b5b"/>
        <path d="M-421.017 122.422v-1.808a1.989 1.989 0 0 0-.09-.723 3.39 3.39 0 0 0-.09-.9 3.915 3.915 0 0 0-.09-.452c0-.271-.09-.542-.09-.813 0-.181-.09-.362-.09-.633s-.09-.452-.09-.723a2.5 2.5 0 0 1-.09-.813c0-.181-.09-.271-.09-.362-.09-.362-.09-.723-.181-.994a1.987 1.987 0 0 1-.091-.723c0-.09 0-.181-.09-.181a83.4 83.4 0 0 0-.271-1.808c0-.09 0-.09-.091-.181a10.506 10.506 0 0 0-.361-1.627c0-.09-.09-.181-.09-.271-.09-.181-.09-.452-.181-.633a2.675 2.675 0 0 1-.181-.9c-.09-.181-.09-.362-.181-.542-.091-.271-.091-.452-.181-.723-.09-.181-.09-.361-.181-.452-.09-.362-.181-.723-.271-.994-.09-.181-.09-.362-.181-.542a.315.315 0 0 0-.09-.181c-.181-.542-.361-1.175-.542-1.717 0-.09 0-.09-.09-.09-.09-.181-.09-.361-.181-.452-.181-.452-.271-.9-.452-1.265a.316.316 0 0 0-.09-.181 5.108 5.108 0 0 1-.362-1.085 6.228 6.228 0 0 0-.361-.9c0-.09-.09-.09-.09-.181-.362-.9-.723-1.808-1.175-2.8a.332.332 0 0 1-.091-.271 2.7 2.7 0 0 0-.361-.723l-.542-1.085a8.793 8.793 0 0 1-.452-.994l-.542-1.085c-.09-.09-.09-.271-.181-.362a8.406 8.406 0 0 1-.452-.9 1.9 1.9 0 0 0-.361-.542 11.572 11.572 0 0 1-.994-1.808A14.859 14.859 0 0 0-432.947 86a.089.089 0 0 0-.09-.09 13.8 13.8 0 0 0-.994-1.446c-.09-.09-.181-.181-.181-.271-.362-.542-.813-1.085-1.175-1.627a.089.089 0 0 0-.09-.09c-.181-.181-.271-.362-.361-.452a4.352 4.352 0 0 0-.813-.994l-.181-.181a3.926 3.926 0 0 0-.542-.633c-.181-.271-.361-.452-.542-.723l-.271-.271c-.181-.271-.361-.452-.542-.723a2.392 2.392 0 0 1-.452-.542l-.271-.271c-.181-.271-.452-.452-.633-.723-.181-.181-.271-.361-.452-.452l-.362-.362c-.271-.181-.452-.452-.723-.633l-.361-.361a1.972 1.972 0 0 0-.452-.362c-.271-.181-.452-.362-.723-.542-.09-.09-.271-.181-.361-.271a2.4 2.4 0 0 0-.542-.452 3.931 3.931 0 0 0-.633-.542c-.09-.09-.181-.181-.271-.181l-.813-.542a1.893 1.893 0 0 0-.542-.362c-.09-.09-.09-.09-.181-.09a8.2 8.2 0 0 0-1.446-.994.089.089 0 0 1-.091-.09 11.794 11.794 0 0 1-1.356-.9.685.685 0 0 0-.361-.181 6.735 6.735 0 0 0-1.085-.633 1.244 1.244 0 0 1-.361-.271l-.542-.271c-.181-.09-.271-.181-.452-.271-.271-.09-.452-.271-.723-.361a1.974 1.974 0 0 1-.452-.271.28.28 0 0 0-.181-.09c-.452-.181-.9-.452-1.446-.633-.452-.181-.9-.361-1.446-.542a.316.316 0 0 1-.181-.09c-.181-.09-.361-.09-.452-.181-.271-.09-.452-.181-.723-.271a.544.544 0 0 0-.361-.09c-.181-.09-.452-.09-.633-.181s-.362-.09-.452-.181a.982.982 0 0 0-.452-.09c-.181-.09-.452-.09-.633-.181-.091 0-.271-.09-.362-.09a1.146 1.146 0 0 0-.542-.09 1.99 1.99 0 0 0-.723-.09c-.09 0-.181-.09-.271-.09a1.339 1.339 0 0 0-.633-.09 2.5 2.5 0 0 0-.813-.09h-.813c-.271 0-.633-.09-.9-.09h-.271a3.388 3.388 0 0 0-.994.09h-.181c-.271 0-.542.09-.813.09a3.918 3.918 0 0 0-.452.09c-.181 0-.271.09-.362.09a6.976 6.976 0 0 1-1.356.181h-.09c-.09 0-.271.09-.361.09l-1.085.271c-.181.09-.361.09-.542.181a2.126 2.126 0 0 1-.723.181c-.09 0-.09.09-.181.09-.361.09-.723.271-1.084.362a1.285 1.285 0 0 1-.542.181 11.749 11.749 0 0 0-1.536.723l-8.134 4.157c.452-.271.994-.452 1.536-.723a1.526 1.526 0 0 1 .452-.181 5.09 5.09 0 0 1 1.084-.361c.271-.09.542-.181.9-.271.181-.09.361-.09.542-.181l1.084-.271a.543.543 0 0 1 .361-.09 6.979 6.979 0 0 1 1.356-.181c.181 0 .271-.09.361-.09a5.966 5.966 0 0 1 1.265-.09h1.536a3.073 3.073 0 0 1 .9.09 2.5 2.5 0 0 1 .813.09c.271 0 .542.09.813.09a2.787 2.787 0 0 0 .9.09 1.99 1.99 0 0 0 .723.09c.271.09.633.09.9.181.181.09.452.09.633.181.362.09.723.181.994.271.181.09.452.09.633.181.362.09.723.271 1.085.362.181.09.361.09.542.181l1.627.542c.542.271 1.084.452 1.627.723a1.974 1.974 0 0 1 .452.271l1.085.542.542.271c.452.271.994.542 1.536.9l1.627 1.085a.088.088 0 0 1 .09.09c.542.362 1.085.723 1.536 1.085a1.894 1.894 0 0 0 .542.362 9.587 9.587 0 0 1 .994.813c.181.181.452.361.633.542a8.151 8.151 0 0 0 .9.813c.271.181.452.362.723.542l.813.813c.271.181.452.452.723.633l.813.813c.181.271.452.452.633.723a8.146 8.146 0 0 1 .813.9c.181.271.361.452.542.723.271.361.542.633.813.994.181.181.361.452.542.633.271.361.633.813.9 1.175.181.181.271.361.361.452.452.542.813 1.175 1.265 1.717.09.09.181.181.181.271a8.952 8.952 0 0 1 .994 1.536 14.383 14.383 0 0 1 1.175 1.988v.09a11.568 11.568 0 0 1 .994 1.808 1.889 1.889 0 0 0 .362.542c.181.361.452.813.633 1.175l.542 1.085a8.8 8.8 0 0 1 .452.994l.542 1.085c.181.271.271.633.452.9.362.9.813 1.808 1.175 2.8a6.878 6.878 0 0 1 .361.994 5.092 5.092 0 0 1 .362 1.085c.181.452.361.994.542 1.536.091.181.091.362.181.452.181.723.362 1.265.542 1.988.09.181.09.362.181.542a7.669 7.669 0 0 1 .361 1.536c.09.271.09.452.181.723.09.452.271.994.361 1.446.09.181.09.452.181.633a14.027 14.027 0 0 1 .361 1.9c0 .09 0 .09.09.181a20.124 20.124 0 0 1 .362 2.079 1.99 1.99 0 0 1 .09.723 7.919 7.919 0 0 1 .181 1.446 2.5 2.5 0 0 1 .09.813 6.4 6.4 0 0 1 .09 1.265c0 .271.09.542.09.813a6.849 6.849 0 0 1 .09 1.356 1.988 1.988 0 0 0 .09.723c0 .542.09 1.175.09 1.808v.271a16.007 16.007 0 0 1-.09 2.079 1.145 1.145 0 0 1-.09.542c0 .452-.09.994-.09 1.446 0 .271-.09.452-.09.723-.09.452-.09.9-.181 1.356a1.987 1.987 0 0 0-.091.723l-.271 1.9c-.09.723-.271 1.265-.362 1.988-.09.181-.09.362-.181.542a5.18 5.18 0 0 1-.361 1.265 2.125 2.125 0 0 0-.181.723 5.094 5.094 0 0 1-.361 1.085l-.271.813c-.09.361-.271.723-.362.994a6.228 6.228 0 0 1-.361.9 9.347 9.347 0 0 0-.362.9 10.521 10.521 0 0 1-.452.994 7.168 7.168 0 0 0-.362.813c-.181.362-.361.813-.542 1.175a2.713 2.713 0 0 0-.361.723.685.685 0 0 0-.181.362c-.271.361-.452.813-.723 1.175-.09.09-.09.181-.181.271-.271.452-.633.9-.9 1.356a15.469 15.469 0 0 1-.994 1.265c-.09.09-.181.181-.181.271a8.147 8.147 0 0 0-.813.9c-.09.09-.181.271-.362.361a6.9 6.9 0 0 1-.813.813l-.271.271a9.567 9.567 0 0 1-1.085.9l-.181.181c-.361.271-.633.452-.994.723-.09.09-.271.181-.362.271a7.944 7.944 0 0 1-.9.542c-.091.09-.271.181-.362.271-.361.271-.813.452-1.175.723l8.134-4.157a5.123 5.123 0 0 0 1.175-.723c.09-.09.271-.181.361-.271a7.956 7.956 0 0 1 .9-.542 1.247 1.247 0 0 0 .361-.271 9.471 9.471 0 0 0 .994-.723l.181-.181c.361-.271.723-.633 1.085-.9l.271-.271a6.908 6.908 0 0 0 .813-.813c.09-.09.181-.271.361-.362a8.134 8.134 0 0 0 .814-.9c.09-.09.181-.181.181-.271a.088.088 0 0 1 .09-.09 10.21 10.21 0 0 0 .9-1.175c.271-.361.542-.813.9-1.265a.088.088 0 0 1 .09-.09c.09-.09.09-.181.181-.271.271-.362.452-.813.723-1.175a.685.685 0 0 0 .181-.362c0-.09.09-.181.181-.271.091-.181.181-.271.271-.452.181-.361.361-.813.542-1.175.09-.09.09-.181.181-.271.09-.181.181-.271.181-.452.181-.361.271-.633.452-.994.09-.181.09-.271.181-.362.09-.181.09-.271.181-.452a9.344 9.344 0 0 0 .361-.9c.09-.181.09-.271.181-.452s.09-.361.181-.542l.271-.813c.09-.181.09-.271.181-.362a2.128 2.128 0 0 0 .181-.723 2.13 2.13 0 0 0 .181-.723.332.332 0 0 0 .09-.271c.09-.362.181-.723.271-.994.091-.181.091-.362.181-.542 0-.09 0-.09.09-.181.09-.542.271-1.175.361-1.717v-.09l.271-1.627a.332.332 0 0 1 .09-.271 1.992 1.992 0 0 0 .09-.723 2.5 2.5 0 0 0 .09-.813c0-.181.09-.362.09-.542 0-.271.09-.452.09-.723 0-.181.09-.271.09-.452 0-.362.09-.723.09-.994a1.146 1.146 0 0 1 .09-.542v-.181c0-.542.09-1.175.09-1.808v-.09c.542-.723.542-.813.542-.9" transform="translate(670.709 127.019)" style="fill:#686868"/>
        <path d="m-391.812 160.782 5.874-2.982-1.988 11.568-5.874 2.982z" transform="translate(662.02 118.031)" style="fill:#353453"/>
        <path d="m-424.5 141.582 5.874-2.982 27.565 16.991-5.874 2.982z" transform="translate(664.974 119.878)" style="fill:#d0e7f4"/>
        <path d="m-398.456 157.6-1.988 11.659-27.656-16.991 1.988-11.568z" transform="translate(665.32 119.676)" style="fill:#fff"/>
    </g>
    <g>
        <path d="m-758.8-172.252 8.134-4.157a.28.28 0 0 1 .181-.09l-8.134 4.157a.28.28 0 0 0-.181.09" transform="translate(1020.272 441.395)" style="fill:#242338" data-name="Grupo 17524"/>
        <path d="m-758.6-172.452 8.134-4.157c.09 0 .09-.09.181-.09l-8.134 4.157c-.09.09-.09.09-.181.09" transform="translate(1020.253 441.414)" style="fill:#25253a" data-name="Grupo 17525"/>
        <path d="m-758.4-172.443 8.134-4.157h.181l-8.134 4.157h-.181" transform="translate(1020.233 441.404)" style="fill:#27263c" data-name="Grupo 17526"/>
        <path d="m-758.2-172.443 8.134-4.157h.09l-8.134 4.157h-.09" transform="translate(1020.214 441.404)" style="fill:#28273f" data-name="Grupo 17527"/>
        <path d="m-758.1-172.443 8.134-4.157h.09l-8.134 4.157h-.09" transform="translate(1020.205 441.404)" style="fill:#292941" data-name="Grupo 17528"/>
        <path d="m-758-172.443 8.134-4.157h.09l-8.134 4.157h-.09" transform="translate(1020.195 441.404)" style="fill:#2b2a43" data-name="Grupo 17529"/>
        <path d="m-757.9-172.443 8.134-4.157h.09l-8.134 4.157h-.091" transform="translate(1020.185 441.404)" style="fill:#2c2c45" data-name="Grupo 17530"/>
        <path d="m-757.8-172.443 8.134-4.157h.09l-8.134 4.157h-.09" transform="translate(1020.176 441.404)" style="fill:#2e2d47" data-name="Grupo 17531"/>
        <path d="m-757.7-172.443 8.134-4.157h.09l-8.134 4.157h-.09" transform="translate(1020.166 441.404)" style="fill:#2f2e49" data-name="Grupo 17532"/>
        <path d="m-757.6-172.443 8.134-4.157c.09 0 .09 0 .09.09l-8.134 4.157-.09-.09" transform="translate(1020.157 441.404)" style="fill:#30304c" data-name="Grupo 17533"/>
        <path d="m-757.5-172.343 8.134-4.157c.09 0 .09 0 .09.09l-8.134 4.157a.088.088 0 0 0-.09-.09" transform="translate(1020.147 441.395)" style="fill:#32314e" data-name="Grupo 17534"/>
        <path d="m-757.4-172.243 8.134-4.157c.09 0 .09 0 .09.09l-8.134 4.157a.088.088 0 0 0-.09-.09" transform="translate(1020.137 441.385)" style="fill:#333250" data-name="Grupo 17535"/>
        <path d="m-757.3-172.243 8.134-4.157a.089.089 0 0 1 .09.09l-8.134 4.157-.09-.09" transform="translate(1020.128 441.385)" style="fill:#343452" data-name="Grupo 17536"/>
        <path d="m-757.2-172.243 8.134-4.157a.088.088 0 0 1 .09.09l-8.134 4.157c-.09 0-.09 0-.09-.09" transform="translate(1020.118 441.385)" style="fill:#363554" data-name="Grupo 17537"/>
        <path d="m-757.2-172.143 8.134-4.157a.088.088 0 0 1 .09.09l-8.224 4.067" transform="translate(1020.118 441.376)" style="fill:#373656" data-name="Grupo 17538"/>
    </g>
    <g>
        <path d="m-757-172.643 8.134-4.157-8.134 4.157" transform="translate(1068.69 490.441)" style="fill:#32314e" data-name="Grupo 17539"/>
        <path d="m-757.01-172.643 8.134-4.157a.315.315 0 0 1-.09.181l-8.134 4.157c.09 0 .09-.09.09-.181" transform="translate(1068.699 490.441)" style="fill:#30304c" data-name="Grupo 17540"/>
        <path d="m-757.01-172.443 8.134-4.157a.315.315 0 0 1-.09.181l-8.134 4.157a.316.316 0 0 0 .09-.181" transform="translate(1068.699 490.422)" style="fill:#2f2e49" data-name="Grupo 17541"/>
        <path d="m-757.11-172.143 8.134-4.157a.315.315 0 0 1-.09.181l-8.134 4.157c.09-.09.09-.09.09-.181" transform="translate(1068.709 490.393)" style="fill:#2e2d47" data-name="Grupo 17542"/>
        <path d="m-757.11-171.943 8.134-4.157a.315.315 0 0 1-.09.181l-8.134 4.157a.28.28 0 0 1 .09-.181" transform="translate(1068.709 490.374)" style="fill:#2c2c45" data-name="Grupo 17543"/>
        <path d="m-757.21-171.743 8.134-4.157a.28.28 0 0 0-.09.181l-8.134 4.157a.316.316 0 0 0 .09-.181" transform="translate(1068.718 490.354)" style="fill:#2b2a43" data-name="Grupo 17544"/>
        <path d="m-757.31-171.443 8.134-4.157a.332.332 0 0 0-.09.271l-8.134 4.157c0-.181.09-.181.09-.271" transform="translate(1068.728 490.326)" style="fill:#292941" data-name="Grupo 17545"/>
        <path d="m-757.41-171.243 8.134-4.157a.332.332 0 0 0-.09.271l-8.134 4.157c0-.09.09-.181.09-.271" transform="translate(1068.738 490.306)" style="fill:#28273f" data-name="Grupo 17546"/>
        <path d="m-757.519-170.943 8.134-4.157c-.09.09-.09.181-.181.271l-8.134 4.157c0-.09.09-.181.181-.271" transform="translate(1068.757 490.277)" style="fill:#27263c" data-name="Grupo 17547"/>
        <path d="m-757.729-170.643 8.134-4.157-.271.271-8.134 4.157.271-.271" transform="translate(1068.786 490.249)" style="fill:#25253a" data-name="Grupo 17548"/>
        <path d="m-758.1-170.343 8.134-4.157a2.3 2.3 0 0 1-.9.723L-759-169.62a1.806 1.806 0 0 0 .9-.723" transform="translate(1068.882 490.22)" style="fill:#242338" data-name="Grupo 17549"/>
    </g>
    <g>
        <path d="m-343.712 190.748 8.134-4.248-1.988 11.93-8.134 4.07z" transform="translate(657.391 115.268)" style="fill:#353453"/>
        <path d="m-401.3 149.552 5.152-2.621a5.762 5.762 0 0 1 5.784.271l44.646 27.384-8.134 4.157z" transform="translate(662.741 119.138)" style="fill:#850141"/>
    </g>
    <g>
        <path d="m-758.9-172.643 8.134-4.157a.088.088 0 0 1 .09.09l-8.224 4.067" transform="translate(1069.358 471.028)" style="fill:#373656" data-name="Grupo 17550"/>
        <path d="m-758.8-172.643 8.134-4.157c.09.09.09.09.181.09l-8.134 4.157c-.09 0-.181 0-.181-.09" transform="translate(1069.348 471.028)" style="fill:#393859" data-name="Grupo 17551"/>
        <path d="m-758.7-172.543 8.134-4.157.181.181-8.134 4.157c0-.09-.09-.09-.181-.181" transform="translate(1069.339 471.018)" style="fill:#3a395b" data-name="Grupo 17552"/>
        <path d="m-758.5-172.343 8.134-4.157.181.181-8.134 4.157-.181-.181" transform="translate(1069.32 470.999)" style="fill:#3b3a5d" data-name="Grupo 17553"/>
        <path d="m-758.3-172.143 8.134-4.157.181.181-8.134 4.157a.194.194 0 0 0-.181-.181" transform="translate(1069.3 470.98)" style="fill:#3d3c5f" data-name="Grupo 17554"/>
        <path d="m-758.1-172.043 8.134-4.157.181.181-8.134 4.157-.181-.181" transform="translate(1069.281 470.97)" style="fill:#3e3d61" data-name="Grupo 17555"/>
        <path d="m-757.9-171.843 8.134-4.157.181.181-8.134 4.157c-.09-.09-.09-.181-.181-.181" transform="translate(1069.262 470.951)" style="fill:#3f3f63" data-name="Grupo 17556"/>
        <path d="m-757.7-171.643 8.134-4.157.181.181-8.134 4.157c0-.09-.181-.09-.181-.181" transform="translate(1069.243 470.932)" style="fill:#414066" data-name="Grupo 17557"/>
        <path d="m-757.5-171.443 8.134-4.157.181.181-8.134 4.157-.181-.181" transform="translate(1069.223 470.913)" style="fill:#424168" data-name="Grupo 17558"/>
        <path d="m-757.3-171.243 8.134-4.157c.09.09.09.181.181.181l-8.134 4.157-.181-.181" transform="translate(1069.204 470.893)" style="fill:#44436a" data-name="Grupo 17559"/>
        <path d="m-757.2-171.043 8.134-4.157c.09.09.09.181.181.181l-8.134 4.157c-.09 0-.09-.181-.181-.181" transform="translate(1069.194 470.874)" style="fill:#45446c" data-name="Grupo 17560"/>
        <path d="m-757-170.843 8.134-4.157c.09.09.09.181.181.181l-8.134 4.157a.194.194 0 0 1-.181-.181" transform="translate(1069.175 470.855)" style="fill:#5b5a7e" data-name="Grupo 17561"/>
        <path d="m-756.8-170.643 8.134-4.157c.09.09.09.181.181.181l-8.134 4.157a.194.194 0 0 1-.181-.181" transform="translate(1069.156 470.836)" style="fill:#656485" data-name="Grupo 17562"/>
        <path d="m-756.7-170.443 8.134-4.157c.09.09.09.181.181.271l-8.134 4.157c-.09-.09-.09-.181-.181-.271" transform="translate(1069.146 470.816)" style="fill:#6c6b8b" data-name="Grupo 17563"/>
        <path d="m-756.5-170.043 8.134-4.157a1.248 1.248 0 0 0 .271.362l-8.134 4.157c-.181-.181-.181-.271-.271-.362" transform="translate(1069.127 470.778)" style="fill:#72718f" data-name="Grupo 17564"/>
        <path d="m-756.3-169.643 8.134-4.157.271.542-8.134 4.157a3 3 0 0 0-.271-.542" transform="translate(1069.108 470.739)" style="fill:#777693" data-name="Grupo 17565"/>
        <path d="m-756-169.143 8.134-4.157c.09.181.09.271.181.362l-8.134 4.157c-.09-.09-.09-.181-.181-.361" transform="translate(1069.079 470.691)" style="fill:#72718f" data-name="Grupo 17566"/>
        <path d="m-755.8-168.643 8.134-4.157a.333.333 0 0 1 .09.271l-8.134 4.157c0-.09-.09-.181-.09-.271" transform="translate(1069.06 470.643)" style="fill:#6c6b8b" data-name="Grupo 17567"/>
        <path d="m-755.7-168.343 8.134-4.157a.332.332 0 0 1 .09.271l-8.134 4.157a.7.7 0 0 1-.09-.271" transform="translate(1069.05 470.614)" style="fill:#656485" data-name="Grupo 17568"/>
        <path d="m-755.6-168.143 8.134-4.157a.316.316 0 0 0 .09.181l-8.134 4.157c-.09 0-.09-.09-.09-.181" transform="translate(1069.04 470.595)" style="fill:#5b5a7e" data-name="Grupo 17569"/>
        <path d="m-755.6-167.843 8.134-4.157a.316.316 0 0 0 .09.181l-8.134 4.157c0-.09 0-.181-.09-.181" transform="translate(1069.04 470.566)" style="fill:#45446c" data-name="Grupo 17570"/>
        <path d="m-755.5-167.643 8.134-4.157a.315.315 0 0 0 .09.181l-8.134 4.157c-.09-.09-.09-.09-.09-.181" transform="translate(1069.031 470.547)" style="fill:#44436a" data-name="Grupo 17571"/>
        <path d="m-755.4-167.443 8.134-4.157a.316.316 0 0 0 .09.181l-8.134 4.157c-.09 0-.09-.09-.09-.181" transform="translate(1069.021 470.528)" style="fill:#424168" data-name="Grupo 17572"/>
        <path d="m-755.3-167.143 8.134-4.157c0 .09.09.181.09.271l-8.134 4.157c-.09-.181-.09-.181-.09-.271" transform="translate(1069.012 470.499)" style="fill:#414066" data-name="Grupo 17573"/>
        <path d="m-755.3-166.943 8.134-4.157c0 .09.09.181.09.271l-8.134 4.157a.332.332 0 0 1-.09-.271" transform="translate(1069.012 470.479)" style="fill:#3f3f63" data-name="Grupo 17574"/>
        <path d="m-755.3-166.743 8.134-4.157a.333.333 0 0 0 .09.271l-8.134 4.157a.91.91 0 0 1-.09-.271" transform="translate(1069.012 470.46)" style="fill:#3e3d61" data-name="Grupo 17575"/>
        <path d="m-755.2-166.443 8.134-4.157a.332.332 0 0 0 .09.271l-8.134 4.157a.332.332 0 0 1-.09-.271" transform="translate(1069.002 470.431)" style="fill:#3d3c5f" data-name="Grupo 17576"/>
        <path d="m-755.2-166.143 8.134-4.157v.271l-8.134 4.157v-.271" transform="translate(1069.002 470.402)" style="fill:#3b3a5d" data-name="Grupo 17577"/>
        <path d="m-755.2-165.943 8.134-4.157v.271l-8.134 4.157v-.271" transform="translate(1069.002 470.383)" style="fill:#3a395b" data-name="Grupo 17578"/>
        <path d="m-755.2-165.643 8.134-4.157v.271l-8.134 4.157v-.271" transform="translate(1069.002 470.354)" style="fill:#393859" data-name="Grupo 17579"/>
        <path d="m-755.2-165.443 8.134-4.157v.271l-8.134 4.157v-.271" transform="translate(1069.002 470.335)" style="fill:#373656" data-name="Grupo 17580"/>
        <path d="m-755.2-165.143 8.134-4.157v.181l-8.134 4.157v-.181" transform="translate(1069.002 470.306)" style="fill:#363554" data-name="Grupo 17581"/>
        <path d="m-755.2-164.943 8.134-4.157v.181l-8.134 4.157v-.181" transform="translate(1069.002 470.287)" style="fill:#343452" data-name="Grupo 17582"/>
        <path d="m-755.21-164.643 8.134-4.157c0 .09 0 .181-.09.181l-8.134 4.157a.28.28 0 0 0 .09-.181" transform="translate(1069.012 470.258)" style="fill:#333250" data-name="Grupo 17583"/>
        <path d="m-755.21-164.443 8.134-4.157c0 .09 0 .181-.09.181l-8.134 4.157.09-.181" transform="translate(1069.012 470.239)" style="fill:#32314e" data-name="Grupo 17584"/>
    </g>
    <g>
        <path d="M-352.716 179.658a8.081 8.081 0 0 1 3.254 7.592l-1.989 11.75c-.452 2.8-2.711 3.886-4.971 2.531l-47.448-29.192a3.8 3.8 0 0 1-1.536-3.615l2.892-17.081c.271-1.356 1.356-1.9 2.35-1.175z" transform="translate(663.141 118.766)" style="fill:#aa0059"/>
        <path d="M-458.237 73.774c-18.708-11.478-37.055-2.259-40.941 20.606s8.134 50.7 26.842 62.179 37.055 2.259 40.941-20.606-8.134-50.7-26.842-62.179m21.781 59.106c-3.344 19.431-18.889 27.294-34.7 17.533-15.906-9.761-26.119-33.439-22.775-52.87s18.889-27.294 34.7-17.533 26.029 33.349 22.775 52.87" transform="translate(672.231 126.591)" style="fill:#c1c1c1"/>
        <path d="M-334.644 297.974c.181.181 2.711 1.446 2.892 1.536.271.181.994.813 1.446 1.084.9.723 2.892 3.163 6.055 1.446 4.7-2.621-6.417-10.032-6.417-10.032l-4.88-2.531a2.53 2.53 0 0 0-1.988 0 2.2 2.2 0 0 0-.994 3.073c.994 1.9.994 2.982 3.886 5.423" transform="translate(656.728 105.378)" style="fill:#15253d"/>
        <path d="M-334.054 296.474c.181.181 2.711 1.446 2.892 1.536.271.181.994.813 1.446 1.085.9.723 2.892 3.163 6.055 1.446 4.7-2.621-6.417-10.032-6.417-10.032l-4.971-2.531a2.53 2.53 0 0 0-1.988 0 2.2 2.2 0 0 0-.994 3.073c1.085 1.9 1.085 2.982 3.977 5.423" transform="translate(656.68 105.522)" style="fill:#fff"/>
        <path d="M-353.884 309.734c.181.09 2.892.813 3.073.994.271.181 1.085.542 1.627.813.994.452 3.434 2.53 6.236.181 4.067-3.525-8.315-8.5-8.315-8.5l-5.332-1.536a2.069 2.069 0 0 0-1.9.362 2.209 2.209 0 0 0-.362 3.163c1.356 1.627 1.717 2.711 4.971 4.519" transform="translate(658.706 104.192)" style="fill:#15253d"/>
        <path d="M-353.684 308.134c.181.09 2.892.813 3.073.994.271.181 1.084.542 1.627.814.994.452 3.434 2.53 6.236.181 4.067-3.525-8.315-8.5-8.315-8.5l-5.332-1.536a2.068 2.068 0 0 0-1.9.361 2.208 2.208 0 0 0-.361 3.163c1.446 1.627 1.717 2.711 4.971 4.519" transform="translate(658.687 104.346)" style="fill:#fff"/>
        <path d="M-348.734 234.874a71.243 71.243 0 0 0-3.073 13.828 111.074 111.074 0 0 0-.994 14.46c-.09 8.224.452 16.539 1.084 24.673.181 2.892.452 5.784.362 8.766a5.535 5.535 0 0 0 5.513 5.513 5.657 5.657 0 0 0 5.513-5.513c.09-1.9-.09-3.8-.181-5.694-.181-2.711-.361-5.423-.542-8.224-.452-6.869-.813-13.828-.723-20.7a115.716 115.716 0 0 1 .9-12.562 7.9 7.9 0 0 0-.181 1.446 63.291 63.291 0 0 1 2.982-13.014 5.825 5.825 0 0 0-.542-4.248 5.882 5.882 0 0 0-3.344-2.531 5.366 5.366 0 0 0-4.248.542 5.418 5.418 0 0 0-2.531 3.254" transform="translate(658.075 110.998)" style="fill:#515151"/>
        <path d="M-329.7 224.077a114.05 114.05 0 0 0-3.254 18.437c-.362 2.892-.633 5.784-.9 8.767-.181 1.446-.271 2.892-.361 4.248a11.116 11.116 0 0 0-.181 1.808c.09 2.44.452 4.971.723 7.411.452 3.886.9 7.772 1.265 11.659a80.354 80.354 0 0 1 .723 10.393 5.624 5.624 0 0 0 1.627 3.886 5.8 5.8 0 0 0 3.886 1.627 5.721 5.721 0 0 0 5.513-5.513 47.337 47.337 0 0 0-.452-7.14c-.271-3.344-.633-6.507-.994-9.851-.361-2.982-.723-5.965-.994-8.857-.091-.994-.181-1.9-.271-2.892a11.032 11.032 0 0 1 .09-2.44c.452-5.513.994-11.026 1.717-16.539a7.908 7.908 0 0 0-.181 1.446 114.3 114.3 0 0 1 2.621-13.466 5.825 5.825 0 0 0-.542-4.248 5.883 5.883 0 0 0-3.344-2.531 5.518 5.518 0 0 0-6.688 3.8" transform="translate(656.303 112.034)" style="fill:#515151"/>
        <path d="M-328.777 237.7c-.813.9 2.621-3.434 1.627-2.8-2.169 1.265-14.1 9.4-16.629 9.49-2.982.09-1.265-2.892-3.525-4.88-2.169-1.9-2.621-4.971-2.8-7.863a5.107 5.107 0 0 1 .181-2.35 4.151 4.151 0 0 1 1.717-1.808c5.332-4.067 15.816-14.008 23.227-10.755 8.586 3.615 0 16.72-3.8 20.967" transform="translate(657.82 112.421)" style="fill:#515151"/>
        <path d="M-322.8 169.265c1.536 2.079 1.446 3.344 1.356 6.055a6.184 6.184 0 0 1-4.519 5.784l-26.661 7.5s-1.536-10.213 3.705-13.376c2.8-1.627 7.23-4.338 10.664-6.417 5.061-3.073 11.839-4.248 15.454.452" transform="translate(658.077 117.23)" style="fill:#fff"/>
        <path d="m-333.895 168.132-2.26-10.032-6.146 4.157 1.808 9.128c.181 1.446 7.049.181 6.6-3.254" transform="translate(657.063 118.001)" style="fill:#ffaa82"/>
        <path d="M-338.592 141.808s6.146-4.248 6.236 6.146a17.911 17.911 0 0 1-10.3 16.268c-3.705 1.717-8.224-.452-8.4-4.067-.9-5.242-.9-10.122.813-14.37-.271-4.338 2.711-2.8 7.953-3.073z" transform="translate(657.964 119.652)" style="fill:#ffaa82"/>
        <path d="M-335.162 161.727s7.049-2.621 6.417-12.653c-.723-10.845-10.664-9.941-16.268-10.393-2.44-.271-4.157-.542-6.688 1.627-2.259 2.079-.181 6.6 3.073 6.869 1.356.09.723 3.615.994 4.79.452 2.169 1.808 3.163 2.259 5.242.452 1.9 3.344 4.971 5.242 5.242 3.434.452 4.971-.723 4.971-.723" transform="translate(658.059 119.887)" style="fill:#915151"/>
        <path d="M-321.224 217.921c1.717-.633 1.356-29.824-.271-45.821l-30.005 14.28c.181 13.647 1.9 24.492.271 41.212z" transform="translate(657.949 116.654)" style="fill:#fff"/>
        <path d="M-341.254 234.943c7.411-2.711 14.46-5.694 18.618-10.755 2.078-1.175 1.807-3.254-.542-4.609-2.35-1.356-5.965-1.536-7.953-.361l-18.618 10.755c-2.079 1.175-1.808 3.254.542 4.609s5.965 1.536 7.953.361" transform="translate(657.915 112.195)" style="fill:#fff"/>
        <path d="m-351.5 187.55 4.971-2.35c.181 13.376 1.808 24.04.271 40.489l.09-.09c-.09.9.633 1.9 1.988 2.711 2.35 1.356 5.965 1.536 7.953.362a94.571 94.571 0 0 0 10.122-4.248c-4.067 3.163-9.49 5.332-15.093 7.411-2.079 1.175-5.6.994-7.953-.362-1.356-.813-1.988-1.717-1.988-2.711l-.09.09c1.627-16.72-.181-27.565-.271-41.3" transform="translate(657.949 115.393)" style="fill:#eaeaea"/>
        <path d="M-344.7 173.161c6.869-.994 11.478 3.344 13.2-6.6a2.189 2.189 0 0 0-2.982.633 6.826 6.826 0 0 1-6.507 2.44 2.156 2.156 0 0 0-2.079.994z" transform="translate(657.294 117.22)" style="fill:#eaeaea"/>
        <path d="M-352.265 180.989c-.181.542-.452 1.085-.633 1.627-.09.271-.181.452-.271.723-.181.452.09-.09.09-.181-.09.181-.181.271-.181.452-.362.9-.813 1.717-1.175 2.531a28.763 28.763 0 0 1-2.35 3.977 7.813 7.813 0 0 0-.633.9s.452-.542.181-.271c-.09.09-.09.181-.181.181-.181.181-.271.362-.362.452-.452.542-.994 1.175-1.536 1.808a2692.278 2692.278 0 0 0-3.977 4.248c-.542.633-1.084 1.175-1.717 1.808-.09.09-.271.181-.362.271-.181.181.633-.452.181-.181a3.175 3.175 0 0 1-.723.452c-.271.181-.542.09.271-.09a.332.332 0 0 1-.271.09.332.332 0 0 1-.271.09c-.542.181.271-.09.361-.09h-.542c.813-.09.723.181.362.09a.544.544 0 0 0-.362-.09c-.362-.09.813.361.362.181-.09-.09-.181-.09-.271-.181s-.181-.181-.271-.181c-.271-.181.633.542.271.181a2.4 2.4 0 0 0-.542-.452l-.271-.271-.181-.181c-.271-.362.452.542.181.271a30.48 30.48 0 0 1-2.169-3.705c-.181-.452-.362-.9-.542-1.265-.09-.271-.181-.452-.271-.723-.09-.09-.181-.452-.09-.09.181.452-.09-.09-.09-.181-.452-1.085-.9-2.259-1.356-3.344-.994-2.711-2.079-5.513-2.982-8.224a2.758 2.758 0 0 0-3.434-1.9 2.886 2.886 0 0 0-1.988 3.434c1.717 4.79 3.434 9.67 5.513 14.28 1.175 2.711 2.8 5.965 5.513 7.411 2.982 1.627 6.055.361 8.315-1.808 1.536-1.446 2.892-2.982 4.248-4.519a45.574 45.574 0 0 0 3.344-3.8 46.278 46.278 0 0 0 6.417-12.2 2.781 2.781 0 0 0-1.988-3.434 2.945 2.945 0 0 0-3.615 1.9" transform="translate(660.702 115.99)" style="fill:#ffaa82"/>
        <path d="M-342.946 183.03c-5.694 13.014-12.653 20.425-19.973 22.956-3.615.813-5.061-5.061-2.982-7.592 7.5-3.434 12.111-10.936 15.545-20.154a4.507 4.507 0 0 1 5.784-.813 4.212 4.212 0 0 1 1.627 5.6" transform="translate(659.426 116.207)" style="fill:#fff"/>
        <path d="M-346.3 156.69c-.181 1.717.723 3.163 1.988 3.344h.361a2.92 2.92 0 0 0 2.079-2.892c.181-1.717-.723-3.163-1.988-3.344-1.175-.181-2.259 1.085-2.44 2.892" transform="translate(657.451 118.417)" style="fill:#ffaa82"/>
        <path d="M-671.967 67.521a7.7 7.7 0 0 1 2.259-1.536 26.026 26.026 0 0 1 2.8-1.175 17.1 17.1 0 0 1 5.965-.9c1.175.09 1.175-1.808 0-1.808a18.874 18.874 0 0 0-6.688 1.085 31.234 31.234 0 0 0-3.073 1.265 7.221 7.221 0 0 0-2.531 1.808.9.9 0 1 0 1.265 1.265" transform="translate(688.938 127.241)" style="fill:#bc4073"/>
        <path d="M-645.835 67.111c-.542 4.338-.813 8.676-1.175 12.924-.09 1.085-.271 2.169-.362 3.344 0 .09-.09.633 0 .09s0 0 0 .09a2.5 2.5 0 0 0-.09.813c-.09.452-.181.994-.271 1.536a24.619 24.619 0 0 1-1.356 5.061c.362-1.085-.09.09-.271.361-.09.181-.181.271-.271.452.362-.723.452-.542.271-.362-.09.09-.09.181-.181.181-.361.362-.09 0 .271-.181-.09.09-.271.09-.271.181.362-.362.814-.271.452-.181-.09 0-.181 0-.181.09.542-.271.813-.09.271-.09a2.877 2.877 0 0 0-2.8 2.8 2.816 2.816 0 0 0 2.8 2.8c4.157.271 5.6-4.88 6.326-8.044a109.4 109.4 0 0 0 1.717-14.37c.181-2.44.362-4.971.723-7.411.181-1.446-1.446-2.8-2.8-2.8a2.739 2.739 0 0 0-2.8 2.711" transform="translate(686.847 127.018)" style="fill:#ffaa82"/>
        <path d="M-657.1 65.1a166.385 166.385 0 0 0 2.982 22.233c.452 2.079.9 4.157 1.356 6.146A3.709 3.709 0 0 0-648.153 96a3.653 3.653 0 0 0 2.53-4.519c-1.175-5.242-2.35-10.574-3.073-15.906.09.362.09.633.181.994-.542-3.8-.9-7.682-1.175-11.568-.181-1.9-1.627-3.8-3.705-3.705-1.807.181-3.8 1.717-3.705 3.8" transform="translate(687.357 127.316)" style="fill:#91b8db"/>
        <path d="m-661.481 185.862.452-.271a.606.606 0 0 0 .271-.723.605.605 0 0 0-.723-.271l-.452.271a.606.606 0 0 0-.271.723.455.455 0 0 0 .723.271" transform="translate(687.852 115.454)" style="fill:#514677"/>
        <path d="M-660.715 184.882v-2.44a.583.583 0 0 0-.542-.542.583.583 0 0 0-.542.542v2.44a.583.583 0 0 0 .542.542.521.521 0 0 0 .542-.542" transform="translate(687.809 115.711)" style="fill:#423a66"/>
        <path d="M-663.607 177.376c.542 2.8 1.175 6.959 1.175 6.959l.994.181-.181-2.892c.181-.452.9.09 1.175.452 1.808 2.711.723 4.428 2.44 5.694a16.152 16.152 0 0 0 8.5 1.085s1.988-.723 1.175-1.988c-1.717-2.44-7.953-9.128-9.219-10.664l-.362-.09-2.26-3.615c-.813-.271-2.44.994-2.982 2.169a3.531 3.531 0 0 0-.452 2.711" transform="translate(687.99 116.619)" style="fill:#272727"/>
        <path d="m-659.317 172.2 1.9 1.536s4.79 7.411 5.6 8.857c.994 1.717-5.242 4.7-9.49-5.423-3.073-5.332 1.988-4.971 1.988-4.971" transform="translate(687.858 116.645)" style="fill:#ef9a78"/>
        <path d="M-657.754 107.615c.09 7.682.09 15.364-.181 23.046a257.028 257.028 0 0 1-1.084 16.629c-.271 2.531-.542 4.971-.9 7.5.09-.362.09-.633.181-.994-.633 4.519-1.446 9.038-2.169 13.557a4.081 4.081 0 0 0 .362 2.892 3.6 3.6 0 0 0 2.259 1.717c1.808.361 4.248-.542 4.609-2.531.994-5.874 1.988-11.749 2.711-17.714.994-8.134 1.446-16.268 1.627-24.4.181-6.507.181-13.1.09-19.612a3.846 3.846 0 0 0-3.709-3.705 3.85 3.85 0 0 0-3.8 3.615" transform="translate(687.831 123.207)" style="fill:#ef9a78"/>
        <path d="M-668.318 114c-.452 8.767-1.084 17.443-1.627 26.119-.452 7.5-.9 15-1.175 22.5-.181 3.886-.181 7.772-.181 11.659a3.783 3.783 0 0 0 3.705 3.705 3.783 3.783 0 0 0 3.706-3.705c0-7.049.271-14.1.632-21.148.362-7.953.9-15.906 1.446-23.859.362-5.061.633-10.213.9-15.364a3.783 3.783 0 0 0-3.706-3.705 3.861 3.861 0 0 0-3.705 3.8" transform="translate(688.724 122.61)" style="fill:#ffaa82"/>
        <path d="M-676.007 114.74c.723 10.393 7.411 11.478 14.1 7.592s10.484-12.653 10.484-20.425c0 0-3.706-11.478-10.484-7.592-6.688 3.8-15 8.315-14.1 20.425" transform="translate(689.183 124.217)" style="fill:#272727"/>
        <path d="M-653.337 69.5s4.428 6.959 3.977 11.207c-.362 2.711-2.26 5.694-2.531 6.507-2.35 7.049-.994 9.128-1.265 11.026 0 0-1.536 6.688-17.985.361l-6.959-20.334z" transform="translate(689.378 126.527)" style="fill:#d0e7f4"/>
        <path d="M-676.982 82.111a2.812 2.812 0 0 1-.813-1.356c-.452-3.615-2.44-5.332 1.536-11.478.633-.994 9.309-5.513 15.726-6.688a6.875 6.875 0 0 1 7.5 4.157 38.5 38.5 0 0 1 1.446 5.061c.271 6.688-2.621-2.079-3.073 1.627 0-.09.09-.181.09-.271 0 0-.813 6.236-1.446 11.026-.361 2.982-.632 5.151-.723 5.513v.09l-11.3 8.857L-674 87.985z" transform="translate(689.435 127.202)" style="fill:#d0e7f4"/>
        <path d="M-660.328 62.6s5.6 5.784.723 9.941-13.2-5.061-13.2-5.061c4.429-2.8 8.586-4.7 12.472-4.88" transform="translate(688.868 127.191)" style="fill:#ffaa82"/>
        <path d="m-651.4 102.7 2.26 35.88a4.259 4.259 0 0 1-.362 1.446c-1.627 2.711-4.7 11.659-21.51 7.772-1.988-.452-2.711-.633-2.531-2.35L-675.8 114.9l9.942-.181z" transform="translate(689.157 123.332)" style="fill:#272727"/>
        <path d="m-661.092 63.722 2.26-10.122-6.869 1.9-1.807 7.953c-.814 2.259 4.7 5.332 6.416.271" transform="translate(688.367 128.057)" style="fill:#ffaa82"/>
        <path d="m-670.381 190.662.452-.271a.606.606 0 0 0 .271-.723.606.606 0 0 0-.723-.271l-.452.271a.606.606 0 0 0-.271.723c.181.271.452.452.723.271" transform="translate(688.708 114.992)" style="fill:#514677"/>
        <path d="M-669.515 189.682v-2.44a.583.583 0 0 0-.542-.542.583.583 0 0 0-.542.542v2.44a.583.583 0 0 0 .542.542.583.583 0 0 0 .542-.542" transform="translate(688.656 115.249)" style="fill:#423a66"/>
        <path d="M-672.411 182.176c.542 2.8 1.175 6.959 1.175 6.959l.994.181-.181-2.892c.181-.452.9.09 1.175.452 1.807 2.711.723 4.428 2.44 5.694a16.151 16.151 0 0 0 8.5 1.085s1.988-.723 1.175-1.988c-1.717-2.44-7.953-9.128-9.219-10.664l-.361-.09-2.259-3.615c-.813-.271-2.44.994-2.982 2.169a3.183 3.183 0 0 0-.452 2.711" transform="translate(688.841 116.157)" style="fill:#272727"/>
        <path d="m-668.217 177 1.9 1.536s4.79 7.411 5.6 8.857c.994 1.717-5.242 4.7-9.49-5.423-3.073-5.332 1.989-4.971 1.989-4.971" transform="translate(688.713 116.183)" style="fill:#ffaa82"/>
        <path d="M-675 82.1a20.979 20.979 0 0 0 2.259 3.8 10 10 0 0 0 10.574 3.8 69.828 69.828 0 0 0 11.839-4.338s-2.53 8.134-1.627 12.924c.362 2.169.09 1.808.09 1.808-.181 2.079-3.615 1.536-3.615 1.536-7.411 2.259-15.635-1.717-15.635-1.717l-4.79-14.1z" transform="translate(689.166 125.315)" style="fill:#a8c4e5"/>
        <path d="M-650.606 101.275a1.328 1.328 0 0 1-.452 1.265 15.227 15.227 0 0 1-11.026 2.8 27.827 27.827 0 0 1-9.4-2.35 1.354 1.354 0 0 1-.723-1.627l.181-.362a1.339 1.339 0 0 1 1.717-.813c2.711 1.085 8.947 3.434 13.466 2.079a18.308 18.308 0 0 0 4.248-1.808 1.25 1.25 0 0 1 1.988.813" transform="translate(688.816 123.583)" style="fill:#46466b"/>
        <path d="m-657.783 105.973 2.892-.542a2.222 2.222 0 0 0 1.717-2.079 1.354 1.354 0 0 0-1.717-1.352l-2.892.542a2.127 2.127 0 0 0-1.717 2.079 1.354 1.354 0 0 0 1.717 1.356" transform="translate(687.588 123.403)" style="fill:#fff"/>
        <path d="M-653.8 42.289c.362 2.531 1.988 4.519 2.621 6.959a3.611 3.611 0 0 1 .179 1.717 3.465 3.465 0 0 1-.813 1.627 5.931 5.931 0 0 0-1.085 3.886c.09 1.175 1.989 1.175 1.808 0a4.4 4.4 0 0 1 .271-1.9 11.053 11.053 0 0 1 1.084-1.717 5.022 5.022 0 0 0 .271-3.8c-.542-2.44-2.259-4.519-2.711-7.14a.9.9 0 0 0-1.084-.633c-.361 0-.542.542-.542.994" transform="translate(687.04 129.246)" style="fill:#915151"/>
        <path d="M-678.718 41.863a6.447 6.447 0 0 0 4.88 7.772 6.583 6.583 0 0 0 7.863-4.88 6.448 6.448 0 0 0-4.88-7.772 6.61 6.61 0 0 0-7.863 4.88" transform="translate(689.454 129.673)" style="fill:#915151"/>
        <path d="m-661.887 61 3.073.09a5.753 5.753 0 0 0 5.965-5.513l.362-12.02A5.81 5.81 0 0 0-658 37.59l-3.073-.09a5.753 5.753 0 0 0-5.965 5.513l-.362 12.02A5.81 5.81 0 0 0-661.887 61" transform="translate(688.349 129.607)" style="fill:#ffaa82"/>
        <path d="M-663.641 46.548c2.531-3.163 7.32.542 9.851-.362 2.8-1.085 1.808-3.886-.09-6.236a10.822 10.822 0 0 0-4.881-3.254c-7.14-2.711-14.37.362-14.641 8.405 0 0-.633 11.026 5.875 12.743l.452-1.627s-2.35-3.344 1.627-5.694c.9-.542.181-.9.09-2.259s.9-.633 1.717-1.717" transform="translate(688.928 129.777)" style="fill:#915151"/>
        <path d="M-668.929 56.2a1.479 1.479 0 0 0 2.531-.633 3.648 3.648 0 0 0-1.084-3.615 1.479 1.479 0 0 0-2.531.633 3.649 3.649 0 0 0 1.085 3.615" transform="translate(688.612 128.261)" style="fill:#ffaa82"/>
        <path d="m-654.033 56.5-3.8 1.627a.485.485 0 0 0-.271.362c.09.542.542 1.9 2.531 1.085a3.379 3.379 0 0 0 1.988-2.8c.18-.181-.091-.362-.452-.271" transform="translate(687.453 127.781)" style="fill:#fff"/>
        <path d="M-658.8 53.8c0 .452.181.9.452.9s.452-.362.452-.9c0-.452-.181-.9-.452-.9s-.452.361-.452.9" transform="translate(687.521 128.125)" style="fill:#492817"/>
        <path d="M-653.4 51.6c0 .452.181.9.452.9s.452-.362.452-.9-.181-.9-.452-.9-.452.452-.452.9" transform="translate(687.001 128.336)" style="fill:#492817"/>
        <path d="M-658.943 51.194a4.037 4.037 0 0 0-2.44 1.085c-.362.452-1.085-.271-.633-.633a5.143 5.143 0 0 1 3.163-1.446c.452.09.452.994-.09.994" transform="translate(687.844 128.384)" style="fill:#915151"/>
        <path d="M-652.053 48.6a3.632 3.632 0 0 0-2.531.9c-.452.362-1.084-.271-.633-.633a5.31 5.31 0 0 1 3.253-1.175c.452 0 .452.994-.09.9" transform="translate(687.191 128.625)" style="fill:#915151"/>
        <path d="M-665.512 46a32.266 32.266 0 0 1-.362 4.248 17.948 17.948 0 0 1-1.084 4.338c-.633 1.446-1.988 2.35-2.711 3.615a3.708 3.708 0 0 0-.633 2.35c.09.994.633 1.9.633 2.892a.9.9 0 0 0 1.807 0c0-.994-.542-1.9-.633-2.892a2.719 2.719 0 0 1 .723-1.988 14.6 14.6 0 0 0 2.621-3.705 25.112 25.112 0 0 0 1.446-8.947c.09-1.085-1.717-1.085-1.808.09" transform="translate(688.629 128.874)" style="fill:#915151"/>
        <path d="M-642.575 69.649a3.529 3.529 0 0 0 3.525-3.525 3.589 3.589 0 0 0-3.525-3.525 3.589 3.589 0 0 0-3.525 3.525 3.589 3.589 0 0 0 3.525 3.525" transform="translate(686.299 127.191)" style="fill:#ffaa82"/>
        <path d="M-643.979 66.9h.542a.777.777 0 0 0 .723-.723v-8.854a.778.778 0 0 0-.723-.723h-.542a.777.777 0 0 0-.723.723v8.857c-.09.362.271.723.723.723" transform="translate(686.165 127.769)" style="fill:#ffaa82"/>
        <path d="M-680.725 72.855c-1.988 3.254-3.886 6.507-5.875 9.761a18.934 18.934 0 0 0-2.8 8.5 16.135 16.135 0 0 0 .994 6.236 18.965 18.965 0 0 0 3.525 5.6c1.085 1.446 2.259 2.711 3.434 4.157.181.181.271.361.452.542.09.09.09.181.181.181s.362.452.09.181c-.271-.362 0 0 .09.09a1.247 1.247 0 0 0 .271.362 2.745 2.745 0 0 1 .452.633c.813 1.085 1.536 2.169 2.259 3.163a2.877 2.877 0 0 0 3.8.994 2.9 2.9 0 0 0 .994-3.8 96.1 96.1 0 0 0-6.959-9.038c-.452-.542-.994-1.175-1.446-1.717a1.59 1.59 0 0 1-.362-.452c-.362-.542.271.361-.09-.09-.271-.452-.542-.813-.813-1.265a3.938 3.938 0 0 1-.362-.633c-.09-.09-.361-.723-.181-.361s-.09-.271-.181-.362a8.5 8.5 0 0 1-.271-.813 3.626 3.626 0 0 1-.271-1.356c0-.09-.09-.181-.09-.271-.09-.361.09.542 0 .181 0-.271-.09-.542-.09-.813v-1.354c0-.271.09-.452.09-.723 0-.09.09-.452 0-.09-.09.452.09-.181.09-.271a7.5 7.5 0 0 1 .362-1.356c.09-.181.09-.361.181-.542s.09-.271.181-.361.271-.633.09-.271l.181-.362.271-.542a1.248 1.248 0 0 1 .271-.362l.271-.542a298.593 298.593 0 0 0 3.254-5.513c.9-1.536 1.807-3.073 2.711-4.519a2.792 2.792 0 0 0-.994-3.8 2.707 2.707 0 0 0-3.705.994" transform="translate(690.467 126.335)" style="fill:#ffaa82"/>
        <path d="M-679.662 71.1c.633-.813 0 0-.181.181-.181.271-.361.452-.542.723-.452.542-.814.994-1.265 1.536-.723.9-1.446 1.717-2.169 2.531a51.374 51.374 0 0 0-3.977 5.061 16.733 16.733 0 0 0-2.35 4.971 15.373 15.373 0 0 0-.181 6.417 26.375 26.375 0 0 0 2.892 7.682 3.678 3.678 0 0 0 5.061 1.265 3.851 3.851 0 0 0 1.356-5.061 19.11 19.11 0 0 1-.994-1.9 1.525 1.525 0 0 1-.181-.452c.09.09.361.813.181.271-.09-.271-.271-.633-.362-.9a18.031 18.031 0 0 1-.813-3.163c.09.361.09.633.181.994a10.358 10.358 0 0 1-.09-2.892c-.09.362-.09.633-.181.994a10.575 10.575 0 0 1 .452-1.808c.09-.181.09-.271.181-.362.271-.723-.271.633-.181.271a3.2 3.2 0 0 0 .361-.813 16.8 16.8 0 0 1 .994-1.717l.542-.813c.181-.271 1.085-1.356.181-.271 2.44-2.982 4.971-5.965 7.321-9.038a4.022 4.022 0 0 0 .362-2.892 3.491 3.491 0 0 0-1.717-2.169 3.614 3.614 0 0 0-2.892-.361 5.078 5.078 0 0 0-1.988 1.717" transform="translate(690.579 126.554)" style="fill:#d0e7f4"/>
        <path d="M-675.348 121.934a3.646 3.646 0 0 0 3.976-3.254l.362-3.705a3.646 3.646 0 0 0-3.254-3.975 3.646 3.646 0 0 0-3.977 3.254l-.362 3.705a3.646 3.646 0 0 0 3.254 3.977" transform="translate(689.428 122.535)" style="fill:#ffaa82"/>
        <path d="M-660.285 63.365A8.663 8.663 0 0 1-663.9 62.1a7.533 7.533 0 0 0 3.163 2.892z" transform="translate(688.011 127.239)" style="fill:#ea8a6c"/>
        <path d="M-527.53 185.26c-2.35 3.344-3.8 7.32-5.152 11.116-1.446 3.886-2.531 7.953-3.615 12.02-.633 2.44-1.175 4.88-1.717 7.321a3.83 3.83 0 0 0 .09 2.259c.452 1.175.9 2.35 1.265 3.525a70.818 70.818 0 0 1 2.079 7.5c.361 1.536.723 3.073.994 4.7a24.274 24.274 0 0 1 .362 2.53c.09.813-.09-.542.09.181a1.991 1.991 0 0 1 .09.723c.09.452.09.994.181 1.446a2.876 2.876 0 0 0 2.8 2.8 2.876 2.876 0 0 0 2.8-2.8 86.074 86.074 0 0 0-4.79-21.239c-.181-.452-.361-.9-.542-1.265v1.446c.542-2.621 1.175-5.151 1.808-7.772a127.2 127.2 0 0 1 4.79-15.093 10.5 10.5 0 0 1 .452-.994c0-.09-.271.542-.181.271a.332.332 0 0 0 .09-.271l.271-.542a11.24 11.24 0 0 1 .9-1.808 22.536 22.536 0 0 1 1.9-3.163 2.813 2.813 0 0 0-.994-3.8 2.941 2.941 0 0 0-3.976.9" transform="translate(675.909 115.514)" style="fill:#ffaa82"/>
        <path d="M-529.18 187.382c-3.705 6.417-6.326 17.172-8.766 25.938-.9 2.44-.361 4.609 1.175 4.519l5.061.723c1.265-.09 3.615-2.8 4.248-4.79l6.507-22.233c1.084-3.615.271-6.778-1.808-7.14l-.452-.09c-.271-1.446-3.163-1.446-5.965 3.073" transform="translate(675.933 115.561)" style="fill:#919191"/>
        <path d="m-478.678 210 1.807 2.35a3.461 3.461 0 0 0 4.88.542 3.461 3.461 0 0 0 .542-4.88l-1.808-2.35a3.461 3.461 0 0 0-4.88-.542 3.524 3.524 0 0 0-.542 4.88" transform="translate(670.258 113.55)" style="fill:#ffaa82"/>
        <path d="M-488.772 246.29c0-.09.09-.09.09-.181l4.248-12.2a7.179 7.179 0 0 0-3.615-8.767 5.776 5.776 0 0 0-7.951 3.525l-4.248 12.2a.089.089 0 0 1-.09.09 7.179 7.179 0 0 0 3.615 8.767 5.8 5.8 0 0 0 7.953-3.434" transform="translate(672.309 111.602)" style="fill:#ef487c"/>
        <path d="m-497.9 228.281 24.492-69.681 6.959 1.808-25.851 74.018z" transform="translate(672.037 117.953)" style="fill:#aa0059"/>
        <path d="M-465.762 160.6c2.711 1.717 2.711-1.356 5.242 1.9l-24.311 69.319c-2.8 4.067-4.971 4.338-6.869 2.982z" transform="translate(671.44 117.76)" style="fill:#850141"/>
        <path d="M-485.881 239.776c0-.09.09-.09.09-.181l.813-2.35a5.882 5.882 0 0 1-7.863 2.8 7.188 7.188 0 0 1-3.705-8.857.089.089 0 0 1 .09-.09l-1.085 3.073a.088.088 0 0 1-.09.09c-2.259 6.507 9.58 11.93 11.749 5.513" transform="translate(672.039 110.976)" style="fill:#e1eaf4"/>
        <path d="M-492.839 239.811c3.254 1.536 6.507 1.265 7.682-2.169 0-.09.452-1.446.452-1.446l.814-2.35c-1.717 4.248-13.557.452-11.568-6.055a.088.088 0 0 1 .09-.09l-1.085 3.073a.088.088 0 0 1-.09.09 7.3 7.3 0 0 0 3.705 8.947" transform="translate(671.947 111.303)" style="fill:#e1eaf4"/>
        <path d="m-458.309 160.458-2.44-16.358-9.851 12.111c-.181 4.88 11.3 7.953 12.291 4.248" transform="translate(669.41 119.348)" style="fill:#fff8cc"/>
        <path d="m-460.006 143.2.723 8.043s-.09.994-1.627.542c-1.627-.452-1.175.723-2.892.09-1.717-.723-1.9-1.265-1.9-1.265z" transform="translate(668.938 119.435)" style="fill:#cc0a63"/>
        <path d="m-525.123 244.816-1.807.813a2.882 2.882 0 0 1-3.8-1.446 2.882 2.882 0 0 1 1.446-3.8l1.807-.813a2.883 2.883 0 0 1 3.8 1.446 2.883 2.883 0 0 1-1.446 3.8" transform="translate(675.22 110.184)" style="fill:#ffaa82"/>
        <path d="M-512.43 314.374c-.181.181-2.711 1.446-2.892 1.536-.271.181-.994.813-1.446 1.085-.9.723-2.892 3.163-6.055 1.446-4.7-2.621 6.417-10.032 6.417-10.032l4.88-2.531a2.529 2.529 0 0 1 1.988 0 2.2 2.2 0 0 1 .994 3.073c-.994 1.9-.994 2.982-3.886 5.423" transform="translate(674.547 103.8)" style="fill:#15253d"/>
    </g>
    <g>
        <g data-name="Grupo 17586">
            <path style="fill:url(#85ydbluaaa)" d="M0 0h19.521v14.551H0z" transform="translate(146.674 408.098)" data-name="Grupo 17585"/>
        </g>
    </g>
    <g>
        <g style="opacity:.46">
            <path d="m-752.826-173.618.09 1.085s.181 3.163-2.983 1.536c-3.073-1.627-2.982-5.6-2.982-5.6s2.259-.271 5.874 2.982" transform="translate(924.538 456.45)" style="fill:#fff"/>
        </g>
        <path d="M-504.27 167.807c4.067 2.079 3.977-1.536 3.977-1.536h.09l-.09-1.265c-4.519-3.886-7.411-3.705-7.411-3.705a6.568 6.568 0 0 0 3.434 6.507m-2.8-5.513s2.35-.09 5.784 2.892l.091.9s.09 2.711-2.892 1.175a5.528 5.528 0 0 1-2.982-4.971" transform="translate(672.984 117.693)" style="fill:#513554"/>
        <path d="m-498.169 167.24-2.44-1.085-.09-1.356 2.44 1.085z" transform="translate(672.307 117.357)" style="fill:#513554"/>
        <path d="m-507.7 162.263-.452-.181a.805.805 0 0 1-.452-.723.278.278 0 0 1 .362-.361l.452.181a.805.805 0 0 1 .452.723c0 .362-.09.452-.362.362" transform="translate(673.069 117.725)" style="fill:#513554"/>
        <path d="m-490.4 170.163-.452-.181a.805.805 0 0 1-.452-.723.278.278 0 0 1 .362-.362l.452.181a.805.805 0 0 1 .452.723c0 .361-.181.452-.362.361" transform="translate(671.404 116.965)" style="fill:#513554"/>
        <g style="opacity:.46">
            <path d="m-758.6-176.8.181 1.085a5.841 5.841 0 0 0 3.434 4.338c2.982 1.175 2.078-3.073 2.078-3.073a8.617 8.617 0 0 0-5.694-2.35" transform="translate(932.789 460.837)" style="fill:#fff"/>
        </g>
        <path d="M-491.479 168.782a11.889 11.889 0 0 0-7.321-2.982l.091 1.265h.09a7.271 7.271 0 0 0 4.609 5.423c3.886 1.536 2.531-3.705 2.531-3.705m-2.8 2.982a5.615 5.615 0 0 1-3.434-4.067l-.181-.994a9.443 9.443 0 0 1 5.694 2.35s.9 3.886-2.079 2.711" transform="translate(672.124 117.261)" style="fill:#513554"/>
        <path d="M-497.013 168.569c-.09-.09-.181-.271-.09-.362l.723-.813c.09-.09.181-.09.271.09.09.09.181.271.09.361l-.723.813c0 .09-.09.09-.271-.09" transform="translate(671.964 117.113)" style="fill:#fcfeff"/>
        <path d="M-506.514 164.069c-.09-.09-.181-.271-.09-.362l.723-.813c.09-.09.181-.09.271.09.09.09.181.271.09.361l-.723.813c-.09.09-.181 0-.271-.09" transform="translate(672.878 117.546)" style="fill:#fcfeff"/>
        <path d="M-493.352 326.134c-.181.09-2.892.813-3.073.994-.271.181-1.085.542-1.627.813-.994.452-3.434 2.531-6.236.181-4.067-3.525 8.315-8.5 8.315-8.5l5.332-1.536a2.069 2.069 0 0 1 1.9.362 2.208 2.208 0 0 1 .361 3.163c-1.356 1.627-1.627 2.621-4.971 4.519" transform="translate(672.73 102.614)" style="fill:#15253d"/>
    </g>
    <g>
        <g data-name="Grupo 17588">
            <path style="fill:url(#ymxypnnnab)" d="M0 0h20.696v12.472H0z" transform="translate(164.223 419.137)" data-name="Grupo 17587"/>
        </g>
    </g>
    <g>
        <path d="M-507.522 253.905a73.234 73.234 0 0 1 2.982 13.014c-.09-.362-.09-.813-.181-1.175a139.228 139.228 0 0 1 .9 22.142c-.181 6.146-.723 12.291-1.085 18.437a54.45 54.45 0 0 0-.271 6.688 4.46 4.46 0 0 0 4.338 4.338 4.46 4.46 0 0 0 4.338-4.338 71.149 71.149 0 0 1 .361-7.592c.271-3.706.542-7.321.813-11.026a150.973 150.973 0 0 0-.362-27.113 73.613 73.613 0 0 0-3.344-15.816 4.3 4.3 0 0 0-1.988-2.531 4.3 4.3 0 0 0-3.344-.452c-2.259.813-3.976 3.163-3.163 5.423" transform="translate(672.983 109.319)" style="fill:#513554"/>
        <path d="M-526.716 243.123a98.458 98.458 0 0 1 2.621 13.466c-.09-.362-.09-.813-.181-1.175.723 4.88 1.084 9.761 1.536 14.731a25.519 25.519 0 0 1 .271 3.706l-.271 2.44c-.633 6.146-1.446 12.2-1.989 18.437-.271 2.8-.542 5.6-.542 8.405a4.46 4.46 0 0 0 4.338 4.338 4.4 4.4 0 0 0 4.338-4.338 76 76 0 0 1 .632-9.038c.362-3.886.814-7.773 1.265-11.749.271-2.8.723-5.513.9-8.224a34.935 34.935 0 0 0-.271-4.338c-.271-2.892-.542-5.784-.813-8.767a125.208 125.208 0 0 0-3.434-20.154 4.372 4.372 0 0 0-5.332-2.982 4.374 4.374 0 0 0-3.073 5.242" transform="translate(674.825 110.341)" style="fill:#513554"/>
        <path d="M-497.255 319.233c-1.808 1.627-5.6 1.356-7.049-.633 0 1.084-.09 2.259 0 3.344.09 4.519 7.14 4.519 7.049 0a13.588 13.588 0 0 1 0-2.711" transform="translate(672.657 102.556)" style="fill:#e1eaf4"/>
        <path d="M-519.7 254.1c.813.9-2.621-3.434-1.627-2.8 2.169 1.265 14.1 9.4 16.629 9.49 2.982.09 1.265-2.892 3.525-4.88 2.169-1.9 2.621-4.971 2.8-7.863a5.1 5.1 0 0 0-.181-2.35 4.149 4.149 0 0 0-1.717-1.808c-5.332-4.067-15.816-14.008-23.227-10.755-8.586 3.525 0 16.629 3.8 20.967" transform="translate(674.855 110.843)" style="fill:#513554"/>
        <path d="M-525.949 185.565c-1.536 2.079-1.446 3.344-1.356 6.055a6.184 6.184 0 0 0 4.519 5.784l26.661 7.5s1.536-10.213-3.706-13.376c-2.8-1.627-7.23-4.338-10.664-6.417-5.061-3.073-11.839-4.248-15.455.452" transform="translate(674.871 115.661)" style="fill:#d1d1d1"/>
        <path d="m-512.3 184.432 2.259-10.032 6.146 4.157-1.807 9.128c-.271 1.446-7.049.181-6.6-3.254" transform="translate(673.425 116.433)" style="fill:#ffaa82"/>
        <path d="M-508.864 158.109s-6.146-4.248-6.236 6.146a17.911 17.911 0 0 0 10.3 16.268c3.706 1.717 8.224-.452 8.405-4.067.9-5.242.9-10.122-.813-14.37.271-4.338-2.711-2.8-7.953-3.073z" transform="translate(673.693 118.084)" style="fill:#ffaa82"/>
        <path d="M-512.787 178.027s-7.049-2.621-6.417-12.653c.723-10.845 10.664-9.941 16.268-10.393 2.44-.271 4.157-.542 6.688 1.627 2.26 2.079.181 6.6-3.073 6.869-1.356.09-.723 3.615-.994 4.79-.452 2.169-1.808 3.163-2.259 5.242-.452 1.9-3.344 4.971-5.242 5.242-3.434.452-4.971-.723-4.971-.723" transform="translate(674.091 118.319)" style="fill:#915151"/>
        <path d="M-527.42 234.321c-1.717-.633-1.356-29.824.271-45.821l30.005 14.28c-.181 13.647-1.9 24.492-.271 41.212z" transform="translate(674.987 115.076)" style="fill:#d1d1d1"/>
        <path d="M-507.332 251.343c-7.411-2.711-14.46-5.694-18.618-10.755-2.078-1.175-1.807-3.254.542-4.609s5.965-1.536 7.953-.361l18.618 10.755c2.079 1.175 1.808 3.254-.542 4.609s-5.965 1.536-7.953.361" transform="translate(674.872 110.617)" style="fill:#d1d1d1"/>
        <path d="m-496.6 203.95-4.971-2.35c-.181 13.376-1.808 24.04-.271 40.489l-.09-.09c.09.9-.633 1.9-1.988 2.711-2.35 1.356-5.965 1.536-7.953.362A94.612 94.612 0 0 1-522 240.824c4.067 3.163 9.49 5.332 15.093 7.411 2.079 1.175 5.6.994 7.953-.361 1.356-.813 1.988-1.717 1.988-2.711l.09.09c-1.627-16.81.181-27.565.271-41.3" transform="translate(674.357 113.815)" style="fill:#bfbfbf"/>
        <path d="m-506.4 317.731.09 3.073a.469.469 0 0 0 .181.362 5.643 5.643 0 0 0 5.694 2.169 12.082 12.082 0 0 0 5.151-1.9.781.781 0 0 0 .271-.542l-.271-3.163a.643.643 0 0 0-.994-.452 8.837 8.837 0 0 1-9.128-.09.634.634 0 0 0-.994.542" transform="translate(672.855 102.703)" style="fill:#644968"/>
        <path d="M-517.055 308.933c-1.807 1.627-5.6 1.356-7.049-.633 0 1.085-.09 2.259 0 3.344.09 4.519 7.14 4.519 7.049 0a13.6 13.6 0 0 1 0-2.711" transform="translate(674.562 103.547)" style="fill:#e1eaf4"/>
        <path d="m-526.2 307.432.09 3.073a.47.47 0 0 0 .181.362 5.643 5.643 0 0 0 5.694 2.169 12.083 12.083 0 0 0 5.151-1.9.782.782 0 0 0 .271-.542l-.271-3.163a.643.643 0 0 0-.994-.452 8.836 8.836 0 0 1-9.128-.09.662.662 0 0 0-.994.542" transform="translate(674.761 103.692)" style="fill:#644968"/>
        <path d="m-491.651 170.573-9.218.9a.509.509 0 0 1-.633-.542.509.509 0 0 1 .542-.633l9.219-.9a.508.508 0 0 1 .633.542.541.541 0 0 1-.542.633" transform="translate(672.385 116.915)" style="fill:#513554"/>
        <path d="M-502.105 189.561c-6.869-.994-11.478 3.344-13.2-6.6a2.189 2.189 0 0 1 2.982.633 6.826 6.826 0 0 0 6.507 2.44 2.156 2.156 0 0 1 2.079.994z" transform="translate(673.712 115.642)" style="fill:#bfbfbf"/>
        <path d="M-499.4 199.772a46.333 46.333 0 0 0 1.988 11.659 70.652 70.652 0 0 0 4.7 10.3c1.356 2.8 3.073 5.694 6.146 6.688 2.892.9 5.694-.723 7.5-2.892 3.163-3.8 4.88-8.676 6.326-13.285a2.811 2.811 0 0 0-1.988-3.434 2.831 2.831 0 0 0-3.434 1.9 51.013 51.013 0 0 1-1.175 3.434c-.181.542-.362.994-.542 1.536 0 .09-.271.633-.271.723-.09-.09.181-.452.09-.09-.09.181-.181.271-.181.452a26.3 26.3 0 0 1-2.44 4.428 1.251 1.251 0 0 1-.271.362c-.181.271.271-.362.271-.271-.09.09-.09.181-.181.181-.181.271-.452.452-.633.723l-.542.542c-.452.362.452-.271.181-.09a.469.469 0 0 1-.361.181c-.181.09-.9.452-.271.181.542-.271-.181 0-.271.09-.271.09-.542-.09.362-.09h-.542c-.542 0 .723.181.271.09-.181-.09-.361-.09-.542-.181.813.271.362.181 0-.09-.09-.09-.181-.09-.271-.181-.271-.181.542.542.181.181l-.542-.542a1.246 1.246 0 0 1-.271-.361c-.09-.09-.09-.09-.09-.181l.271.271-.542-.813a12.556 12.556 0 0 1-.994-1.9c-.9-1.717-1.717-3.525-2.531-5.242a23.121 23.121 0 0 1-.994-2.169.28.28 0 0 1-.09-.181c-.181-.361.09.271.09.271a1.285 1.285 0 0 1-.181-.542 4.408 4.408 0 0 1-.362-.994 28.745 28.745 0 0 1-1.265-4.79c-.09-.452-.181-.9-.271-1.446 0-.09-.09-.271-.09-.362.09.181.09.542.09.181a2.505 2.505 0 0 1-.09-.813c-.181-1.265-.271-2.44-.361-3.705a2.816 2.816 0 0 0-2.8-2.8c-1.717.362-3.254 1.536-3.073 3.073" transform="translate(672.183 114.287)" style="fill:#ffaa82"/>
        <path d="M-502.513 199.561c1.717 14.189 6.146 23.227 12.382 27.746 3.254 1.808 6.326-3.344 5.061-6.417-6.146-5.513-8.315-14.008-8.947-23.769a4.4 4.4 0 0 0-5.332-2.44 4.024 4.024 0 0 0-3.163 4.88" transform="translate(672.493 114.498)" style="fill:#919191"/>
        <path d="M-504.925 175.818c-.361.271-1.085 7.5 4.971 6.326s4.88-7.23 4.88-7.23-4.79 1.265-6.146-4.7c-1.356-6.055-3.705 5.6-3.705 5.6" transform="translate(672.736 117.003)" style="fill:#aa6868"/>
        <path d="M-499.574 172.992c.181 1.717-.723 3.163-1.988 3.344h-.362a2.92 2.92 0 0 1-2.076-2.893c-.181-1.717.723-3.163 1.988-3.344 1.175-.09 2.259 1.175 2.44 2.892" transform="translate(672.627 116.847)" style="fill:#ffaa82"/>
    </g>
</svg>
